<?xml version="1.0" encoding="UTF-8" standalone="no"?>
<svg
   width="125.24351"
   height="26.773073"
   viewBox="0 0 125.24351 26.773073"
   fill="none"
   version="1.1"
   id="svg12"
   sodipodi:docname="Ertebat logo final 1.svg"
   inkscape:version="1.3 (0e150ed, 2023-07-21)"
   xmlns:inkscape="http://www.inkscape.org/namespaces/inkscape"
   xmlns:sodipodi="http://sodipodi.sourceforge.net/DTD/sodipodi-0.dtd"
   xmlns="http://www.w3.org/2000/svg"
   xmlns:svg="http://www.w3.org/2000/svg">
  <sodipodi:namedview
     id="namedview12"
     pagecolor="#ffffff"
     bordercolor="#000000"
     borderopacity="0.25"
     inkscape:showpageshadow="2"
     inkscape:pageopacity="0.0"
     inkscape:pagecheckerboard="0"
     inkscape:deskcolor="#d1d1d1"
     inkscape:zoom="3.3972603"
     inkscape:cx="73"
     inkscape:cy="18.544355"
     inkscape:window-width="1248"
     inkscape:window-height="426"
     inkscape:window-x="0"
     inkscape:window-y="25"
     inkscape:window-maximized="0"
     inkscape:current-layer="g12" />
  <g
     clip-path="url(#clip0_1_26)"
     id="g12"
     transform="translate(-10.008065,-4.8242207)">
    <g
       id="g13"
       transform="translate(10.008065,0.009307)">
      <path
         d="m 123.96059,11.110016 v 14.59411 c 0,0 -0.29949,4.598697 -4.59812,4.598697 h -14.53416 c 0,0 -5.009836,0.238806 -5.009836,-5.009903 0,-5.248711 6.487266,-8.389559 11.585726,-5.107758 3.89836,2.509491 6.07341,2.204427 6.07341,2.204427"
         stroke="#8183bf"
         stroke-width="2.56583"
         stroke-linecap="round"
         stroke-linejoin="round"
         id="path1" />
      <path
         d="m 99.817753,25.293276 v -14.59449 c 0,0 0.300197,-4.5987103 4.598837,-4.5987103 h 14.53417 c 0,0 5.00983,-0.2387622 5.00983,5.0099183 0,5.248711 -6.48798,8.389559 -11.58573,5.107757 -3.89908,-2.509563 -6.07341,-2.204427 -6.07341,-2.204427"
         stroke="#8183bf"
         stroke-width="2.56583"
         stroke-linecap="round"
         stroke-linejoin="round"
         id="path2" />
    </g>
    <g
       id="g14"
       transform="translate(10.008065,-0.28779315)">
      <path
         d="M 7.61168,5.3905 H 9.31089 C 9.40137,5.4021 9.4466,5.44734 9.4466,5.52621 V 17.1476 c 1.8918,-2.4468 3.0922,-3.9192 3.602,-4.4174 1.2573,-1.0422 2.5935,-1.5629 4.0097,-1.5629 2.4694,0 4.3947,1.3593 5.7767,4.0775 0.3173,0.8722 0.4756,1.6876 0.4756,2.4468 v 0.4755 c 0,2.4804 -1.2005,4.429 -3.602,5.8446 -0.7818,0.4077 -1.5972,0.6118 -2.4468,0.6118 H 1.56293 C 0.520784,24.3858 0,23.865 0,23.0606 V 21.2935 C 0.0110188,21.2031 0.0568339,21.1578 0.135705,21.1578 H 6.04817 V 6.95343 C 6.27434,5.91129 6.79571,5.3905 7.6111,5.3905 Z M 11.078,21.1578 h 5.9124 c 1.5293,0 2.4804,-1.0195 2.8545,-3.058 V 17.76 c 0,-1.382 -0.7702,-2.3105 -2.3105,-2.7866 -0.2378,-0.0452 -0.4645,-0.0679 -0.6797,-0.0679 -0.9627,0 -1.9822,0.8833 -3.058,2.6503 -0.4193,0.4646 -1.3251,1.665 -2.7187,3.602 z"
         fill="#8183bf"
         id="path3" />
      <path
         d="m 26.5049,5.45831 h 1.563 c 0.0904,0.0116 0.1357,0.05684 0.1357,0.13571 V 19.0503 c 0,1.0874 0.4303,1.7671 1.2915,2.0391 l 0.4077,0.0678 h 1.937 c 0.0905,0.0116 0.1357,0.0569 0.1357,0.1357 v 3.1943 c 0,0.0911 -0.0452,0.1357 -0.1357,0.1357 h -2.8203 c -1.3703,0 -2.5488,-0.7023 -3.5341,-2.1069 -0.4077,-0.5886 -0.6344,-1.2683 -0.6797,-2.039 V 7.15753 c 0.1247,-1.13262 0.6907,-1.69922 1.6992,-1.69922 z"
         fill="#8183bf"
         id="path4" />
      <path
         d="m 31.5684,21.1578 h 8.0872 v 3.4663 h -8.0872 c -0.0905,0 -0.1357,-0.0452 -0.1357,-0.1357 v -3.1943 c 0.0116,-0.0904 0.0568,-0.1357 0.1357,-0.1357 z"
         fill="#8183bf"
         id="path5" />
      <path
         d="m 47.9295,14.6335 h 0.3399 c 0.8606,0 1.382,0.6119 1.5629,1.835 V 21.09 h 2.209 c 0.0905,0.0116 0.1357,0.0568 0.1357,0.1357 v 3.2621 c 0,0.0911 -0.0452,0.1357 -0.1357,0.1357 H 39.706 c -0.091,0 -0.1357,-0.0452 -0.1357,-0.1357 V 21.2257 C 39.5813,21.1352 39.6271,21.09 39.706,21.09 h 6.66 v -4.4174 c 0,-0.9743 0.3851,-1.6308 1.1553,-1.9706 l 0.4077,-0.0679 z m -5.0124,11.7913 c 0.4419,0 0.8665,0.1102 1.2742,0.3312 0.4076,0.2209 0.7307,0.5411 0.9684,0.9598 0.2378,0.4187 0.3567,0.8554 0.3567,1.3083 0,0.4529 -0.1131,0.8664 -0.3398,1.2741 -0.2268,0.4077 -0.5469,0.7279 -0.9598,0.9598 -0.4135,0.232 -0.8467,0.3486 -1.2997,0.3486 -0.4529,0 -0.8693,-0.116 -1.2828,-0.3486 -0.4135,-0.2325 -0.7336,-0.5521 -0.9598,-0.9598 -0.2267,-0.4077 -0.3398,-0.8328 -0.3398,-1.2741 0,-0.4413 0.116,-0.889 0.3485,-1.3083 0.232,-0.4193 0.555,-0.7389 0.9685,-0.9598 0.4135,-0.221 0.8351,-0.3312 1.266,-0.3312 z"
         fill="#8183bf"
         id="path6" />
      <path
         d="m 51.4811,21.1578 h 8.0872 v 3.4663 h -8.0872 c -0.0905,0 -0.1357,-0.0452 -0.1357,-0.1357 v -3.1943 c 0.0116,-0.0904 0.0568,-0.1357 0.1357,-0.1357 z"
         fill="#8183bf"
         id="path7" />
      <path
         d="m 59.6193,21.1578 h 11.8933 c 1.0874,0.2378 1.6308,0.7592 1.6308,1.563 v 1.767 c 0,0.0911 -0.0452,0.1357 -0.1357,0.1357 H 59.6193 c -0.0911,0 -0.1357,-0.0452 -0.1357,-0.1357 v -3.1943 c 0.011,-0.0904 0.0568,-0.1357 0.1357,-0.1357 z"
         fill="#8183bf"
         id="path8" />
      <path
         d="m 79.6,12.119 h 1.8349 c 0.0904,0.0116 0.1357,0.0568 0.1357,0.1357 v 9.243 c 0,3.036 -1.3142,5.55 -3.9418,7.5438 -1.3368,0.9059 -2.7414,1.3594 -4.2139,1.3594 h -5.5726 c -0.0905,0 -0.1357,-0.0452 -0.1357,-0.1357 v -1.8349 c 0.2268,-1.0422 0.7475,-1.563 1.5629,-1.563 h 1.1553 c 3.058,0 5.1197,-0.5666 6.1844,-1.6992 0.9517,-0.7023 1.4272,-2.0611 1.4272,-4.0775 V 13.683 c 0.2378,-1.0421 0.7586,-1.5629 1.563,-1.5629 z"
         fill="#8183bf"
         id="path9" />
      <path
         d="m 88.2311,5.3905 h 1.4951 c 0.0905,0.0116 0.1357,0.05684 0.1357,0.13571 V 23.06 c -0.2268,1.0422 -0.7475,1.563 -1.5629,1.563 h -1.6308 c -0.0911,0 -0.1357,-0.0453 -0.1357,-0.1357 V 7.08972 C 86.6572,5.9571 87.2232,5.3905 88.2317,5.3905 Z"
         fill="#8183bf"
         id="path10" />
      <path
         d="m 62.9307,14.0583 c 0.4419,0 0.8665,0.1101 1.2741,0.3311 0.4077,0.221 0.7308,0.5411 0.9685,0.9598 0.2378,0.4187 0.3567,0.8554 0.3567,1.3083 0,0.453 -0.1131,0.8665 -0.3398,1.2742 -0.2268,0.4077 -0.5469,0.7278 -0.9598,0.9598 -0.4135,0.2319 -0.8467,0.3485 -1.2997,0.3485 -0.4529,0 -0.8693,-0.116 -1.2828,-0.3485 -0.4135,-0.2326 -0.7336,-0.5521 -0.9598,-0.9598 -0.2267,-0.4077 -0.3398,-0.8328 -0.3398,-1.2742 0,-0.4413 0.116,-0.889 0.3485,-1.3083 0.232,-0.4193 0.555,-0.7388 0.9685,-0.9598 0.4135,-0.221 0.8351,-0.3311 1.266,-0.3311 z"
         fill="#8183bf"
         id="path11" />
      <path
         d="m 68.8108,14.0583 c 0.4419,0 0.8664,0.1101 1.2741,0.3311 0.4077,0.221 0.7307,0.5411 0.9685,0.9598 0.2378,0.4187 0.3567,0.8554 0.3567,1.3083 0,0.453 -0.1131,0.8665 -0.3399,1.2742 -0.2267,0.4077 -0.5468,0.7278 -0.9598,0.9598 -0.4135,0.2319 -0.8467,0.3485 -1.2996,0.3485 -0.4529,0 -0.8693,-0.116 -1.2828,-0.3485 -0.4135,-0.2326 -0.7336,-0.5521 -0.9598,-0.9598 -0.2268,-0.4077 -0.3399,-0.8328 -0.3399,-1.2742 0,-0.4413 0.116,-0.889 0.3486,-1.3083 0.232,-0.4193 0.555,-0.7388 0.9685,-0.9598 0.4135,-0.221 0.8351,-0.3311 1.266,-0.3311 z"
         fill="#8183bf"
         id="path12" />
    </g>
  </g>
  <defs
     id="defs12">
    <clipPath
       id="clip0_1_26">
      <rect
         width="145.10001"
         height="37"
         fill="#ffffff"
         id="rect12"
         x="0"
         y="0" />
    </clipPath>
  </defs>
</svg>
