<?xml version="1.0" encoding="UTF-8"?><svg id="OBJECTS" xmlns="http://www.w3.org/2000/svg" xmlns:xlink="http://www.w3.org/1999/xlink" viewBox="0 0 513.5 516.5"><defs><style>.cls-1{stroke:#8183bf;}.cls-1,.cls-2,.cls-3,.cls-4,.cls-5,.cls-6{fill:none;}.cls-1,.cls-2,.cls-4,.cls-6{stroke-linecap:round;stroke-linejoin:round;}.cls-1,.cls-6{stroke-width:3px;}.cls-2{stroke:#5659a9;stroke-width:4px;}.cls-4{stroke:#a0a09c;}.cls-5{clip-path:url(#clippath);}.cls-6{stroke:#686866;}</style><clipPath id="clippath"><rect class="cls-3" x="7.14" y="8.94" width="500" height="500"/></clipPath></defs><g class="cls-5"><polyline class="cls-4" points="31.15 35.19 40.83 34.04 54.94 19.27"/><polyline class="cls-4" points="47.5 14 64.67 26.17 107.67 2"/><polyline class="cls-4" points="57.33 29.33 69.83 36.5 82.17 29.33 81.33 22.33"/><line class="cls-4" x1="91.5" y1="15.83" x2="63.81" y2="33.05"/><line class="cls-4" x1="75.78" y1="33.05" x2="72" y2="27.23"/><line class="cls-4" x1="99.17" y1="8.94" x2="108.25" y2="23.14"/><polyline class="cls-4" points="36.34 40.66 27.83 54.5 9.83 61"/><line class="cls-4" x1="34.06" y1="66.38" x2="27.83" y2="54.5"/><path class="cls-4" d="m83.42,38.01s22.08,7.18,28.91,9.57c6.83,2.39,20.91,10.11,20.91,10.11,0,0,17.13,11.1,25.26,11.76,8.13.67,21.45-.01,29.31,2.03,7.85,2.05,22.45,6.88,22.45,6.88l34.03,9.82,50.14,14.4s48.77,7.83,53.9,7.49c5.12-.34,10.59-2.36,17.08-2.04,6.49.33,28.38,1.92,34,4.2,5.62,2.28,25.43,12.52,30.89,12.86s30.29-3.76,30.29-3.76c0,0,12.06-1.71,16.5,0s34.43,3.78,34.43,3.78"/><path class="cls-4" d="m57.33,60.59s9.68-2.32,14.67-4.04c4.99-1.72,5.3-1.6,11.42-2.06,6.12-.45,11.67-1.39,18.28-10.5"/><line class="cls-4" x1="73.89" y1="43.42" x2="69.75" y2="57.28"/><line class="cls-4" x1="85.1" y1="38.56" x2="75.78" y2="55.37"/><line class="cls-4" x1="88.48" y1="39.66" x2="81.21" y2="54.66"/><line class="cls-4" x1="94.68" y1="41.69" x2="88.02" y2="53.93"/><line class="cls-4" x1="104.34" y1="50.83" x2="87.47" y2="84.68"/><line class="cls-4" x1="118.34" y1="50.1" x2="98.46" y2="93.75"/><line class="cls-4" x1="98.46" y1="62.64" x2="110.3" y2="67.75"/><line class="cls-4" x1="92.91" y1="89.15" x2="104.34" y2="65.2"/><line class="cls-4" x1="93.28" y1="73.03" x2="105.16" y2="79.03"/><line class="cls-4" x1="123.98" y1="52.83" x2="102.58" y2="97.18"/><polyline class="cls-4" points="96.86 65.83 92.32 64.22 81.21 79.55"/><path class="cls-4" d="m106.13,24.44l2.13,21.75s15.09-13.28,38.23-15.33c23.14-2.05,34.23.25,45.53-2.81"/><line class="cls-4" x1="107.81" y1="41.69" x2="119.26" y2="35.31"/><line class="cls-4" x1="140.4" y1="43.42" x2="131.29" y2="38.56"/><line class="cls-4" x1="134.32" y1="33.05" x2="127.98" y2="44.55"/><polyline class="cls-4" points="101.7 56.13 99.17 55.37 82.17 70.03"/><line class="cls-4" x1="84.84" y1="61" x2="65.13" y2="66.67"/><line class="cls-4" x1="172.56" y1="4.5" x2="116.1" y2="108.51"/><polyline class="cls-4" points="193.5 4.5 129.28 119.7 87.5 164.98"/><polyline class="cls-4" points="180.83 27.23 168 29.88 123.07 114.42"/><line class="cls-4" x1="146.32" y1="52.83" x2="153.85" y2="56.51"/><line class="cls-4" x1="163.33" y1="12.33" x2="180.83" y2="22.33"/><line class="cls-4" x1="179.33" y1="4.5" x2="188.16" y2="14.08"/><line class="cls-4" x1="194.67" y1="8" x2="206.83" y2="17.33"/><line class="cls-4" x1="211.83" y1="5.67" x2="186.41" y2="71.16"/><line class="cls-4" x1="217.33" y1="11.5" x2="212.64" y2="20.84"/><line class="cls-4" x1="221.25" y1="25.11" x2="209.5" y2="19.27"/><polyline class="cls-4" points="175.44 70.03 175 62.64 177 57.28"/><polyline class="cls-4" points="199.86 36.5 217.33 44.55 242.33 58"/><line class="cls-4" x1="189.25" y1="63.84" x2="211.58" y2="71.92"/><line class="cls-4" x1="215.37" y1="44" x2="199.5" y2="67.88"/><line class="cls-4" x1="197.53" y1="42.51" x2="211.32" y2="50.1"/><line class="cls-4" x1="213.84" y1="61" x2="207.44" y2="60.44"/><line class="cls-4" x1="237.16" y1="31.62" x2="228.12" y2="50.35"/><polyline class="cls-4" points="235.5 5.67 293.85 104.17 360.74 50"/><line class="cls-4" x1="261.7" y1="61.78" x2="248.33" y2="58"/><polyline class="cls-4" points="271.31 58.6 315.17 69.45 323.67 70.03 407.36 88.18 460.28 104.17 511.5 119.17"/><line class="cls-4" x1="290.65" y1="52.1" x2="287.63" y2="62.64"/><line class="cls-4" x1="300.97" y1="48.57" x2="295.99" y2="64.7"/><polyline class="cls-4" points="310.35 68.26 327.24 77.42 352.83 84.17 369.5 86.67 403.15 99.83 427.48 153.55 437.83 183.17 430.89 240.14"/><polyline class="cls-4" points="355.33 71.16 339.85 67.31 331.67 51.17 337.91 34.04"/><polyline class="cls-4" points="378.67 4.5 359.17 54 347.5 110.08 387 135"/><polyline class="cls-4" points="329.87 4.5 360.74 50 374.09 64.7 397 85.93"/><polyline class="cls-4" points="430.08 4.5 422 30.86 347.5 110.08 311.29 125.71 250.61 113.56 204.25 107.47"/><polyline class="cls-4" points="205.19 102.9 195.54 95.94 179.14 88.29 182.97 78.86"/><line class="cls-4" x1="234.71" y1="85.42" x2="224.12" y2="113.09"/><line class="cls-4" x1="241.61" y1="87.41" x2="228.12" y2="119.17"/><polyline class="cls-4" points="204.03 108.51 230.55 129.34 278.4 97.98 280.46 81.56"/><polyline class="cls-4" points="260.21 152.07 273.42 127.02 276.95 118.84 278.4 97.98"/><line class="cls-4" x1="278.4" y1="144.23" x2="273.42" y2="127.02"/><line class="cls-4" x1="273" y1="156" x2="263.66" y2="145.53"/><polyline class="cls-4" points="250.02 65.2 261.7 69.03 257.14 84.68 279.51 89.15"/><line class="cls-4" x1="260.21" y1="92.76" x2="261.7" y2="85.59"/><polyline class="cls-4" points="258.19 67.88 252.51 87.41 260.96 88.88"/><line class="cls-4" x1="323.33" y1="80.3" x2="312.29" y2="105.38"/><line class="cls-4" x1="314.55" y1="87.41" x2="307.17" y2="104.59"/><polyline class="cls-4" points="320.94 106.68 311.29 125.71 353.09 135 394.57 148.63 389.18 161.14 389.89 168.46 380.24 180.43 381.32 196.33 377.39 198.83 367.25 196.33"/><polyline class="cls-4" points="375.24 159.53 394.57 148.63 402.75 172.75 401.86 183.17 394.57 199.54 380.1 200.97 377.74 204.9 367.25 200.61 367.25 189.18 365.39 183.17 348.63 179.52 349.34 155.06 353.09 135"/><polyline class="cls-4" points="335.58 136.41 331.67 148.63 349.34 155.06 366.49 156 376.85 160.42 389.18 161.14"/><polyline class="cls-4" points="380.1 143.88 375.24 153.46 350.69 147.87"/><line class="cls-4" x1="359.44" y1="137.09" x2="360.42" y2="150.08"/><line class="cls-4" x1="371.97" y1="141.21" x2="369.15" y2="152.07"/><line class="cls-4" x1="351.22" y1="145.03" x2="334.96" y2="138.36"/><line class="cls-4" x1="342.02" y1="152.07" x2="343.5" y2="141.86"/><polyline class="cls-4" points="369.15 169.95 349.04 165.42 330.58 156 321.83 175.78 333.26 184.18"/><polyline class="cls-4" points="331.67 178.46 345.49 180.43 340.23 187.5 345.49 194.54"/><polyline class="cls-4" points="350.69 193.29 356.84 195.61 362.02 189 348.63 179.52 345.49 180.43"/><polyline class="cls-4" points="328.98 150.08 325.94 137.09 319 137.82 317.16 141.69 302 148.67 300.75 158.1 306.65 163.64 320.05 167.25"/><polyline class="cls-4" points="326.66 154.71 318.44 152.75 311.29 153.73 301.46 152.75"/><polyline class="cls-4" points="301.03 156 291.82 159.53 288.43 170.09 281.64 181.32 282.53 190.79 293.61 201.69"/><polyline class="cls-4" points="275.92 172.3 282.73 179.52 300.75 186.5 310.35 195.61 357.56 216.69 362.02 218.66 371.97 244.02 372.71 261.25 385.21 297.84"/><polyline class="cls-4" points="268.33 188.54 308.08 209.37 326.66 220.44 348.63 238.66 348.63 268.2 356.59 289.92"/><line class="cls-4" x1="268.33" y1="202.94" x2="297.46" y2="220.8"/><polyline class="cls-4" points="281.82 195.61 271.46 213.3 280.46 219.55"/><polyline class="cls-4" points="293.61 201.69 268.33 238.36 281.98 230.4"/><line class="cls-4" x1="288.25" y1="247.06" x2="279.1" y2="222.74"/><polyline class="cls-4" points="288.25 209.46 323.26 230.8 321.83 235.63 337.73 242"/><line class="cls-4" x1="342.02" y1="233.18" x2="327.29" y2="262.66"/><line class="cls-4" x1="320.5" y1="216.77" x2="308.48" y2="255.51"/><line class="cls-4" x1="304.68" y1="238.36" x2="299" y2="251.62"/><line class="cls-4" x1="315.64" y1="232.43" x2="305.4" y2="228.37"/><line class="cls-4" x1="321.83" y1="242" x2="315.64" y2="258.94"/><line class="cls-4" x1="328.66" y1="238.36" x2="320.5" y2="259.74"/><line class="cls-4" x1="297.46" y1="236.14" x2="292.92" y2="249.05"/><line class="cls-4" x1="300.75" y1="186.5" x2="295.8" y2="202.94"/><line class="cls-4" x1="310.35" y1="195.61" x2="304.04" y2="207.25"/><line class="cls-4" x1="314.87" y1="197.63" x2="321.83" y2="209.46"/><line class="cls-4" x1="328.11" y1="203.54" x2="322.94" y2="218.23"/><polyline class="cls-4" points="328.11 221.65 331.67 213.3 338.58 215.98"/><polyline class="cls-4" points="337.73 229.63 338.58 221.65 356.49 221.65 357.56 216.69"/><line class="cls-4" x1="348.63" y1="238.66" x2="348.63" y2="221.65"/><line class="cls-4" x1="338.58" y1="228.37" x2="368.39" y2="234.9"/><polyline class="cls-4" points="348.63 241.16 371.97 244.02 418.29 230.4 435.15 243.44"/><polyline class="cls-4" points="413.67 248.76 398.29 225.63 398.29 214.19 408.65 201.43 410.46 170.09"/><polyline class="cls-4" points="397 236.66 402.75 251.81 429.02 268.76 466.36 285.47 512.23 300.66"/><line class="cls-4" x1="396.23" y1="253.74" x2="389.18" y2="226.54"/><line class="cls-4" x1="302.91" y1="188.54" x2="308.48" y2="174.53"/><polyline class="cls-4" points="285.74 174.53 305.4 182.28 312.99 179.52 320.5 183.17 328.98 194.72"/><line class="cls-4" x1="358.63" y1="203.54" x2="357.56" y2="209.46"/><polyline class="cls-4" points="380.1 213.3 338.58 193.83 331.67 192.75 327.29 196.33 378.1 218.23"/><polyline class="cls-4" points="381.32 196.33 390.71 195.61 390.71 179.52 410.46 170.09 414.54 174.53 439.01 173.82"/><polyline class="cls-4" points="409.19 192.04 437.83 183.17 444.74 140.24 451.78 83.84 460.27 36.28"/><polyline class="cls-4" points="435.35 203.54 408.65 201.43 406.32 224.81"/><line class="cls-4" x1="432.8" y1="224.48" x2="407" y2="219.55"/><polyline class="cls-4" points="409.19 190.07 423.51 181.54 427.4 190.07 425.08 202.94"/><polyline class="cls-4" points="372.71 215.91 367.43 232.43 382.39 227.23 406.32 224.81 418.29 230.4"/><line class="cls-4" x1="250.49" y1="207.58" x2="245.47" y2="228.37"/><line class="cls-4" x1="433.84" y1="215.91" x2="459.45" y2="225.73"/><line class="cls-4" x1="444.74" y1="241.38" x2="451.65" y2="222.74"/><line class="cls-4" x1="459.5" y1="229.63" x2="450.23" y2="226.54"/><line class="cls-4" x1="459.45" y1="232.43" x2="448.19" y2="233.18"/><polyline class="cls-4" points="459.5 207.58 436.66 192.75 459.9 175.96 482.42 158.35 481.17 122.22"/><line class="cls-4" x1="459.45" y1="188.54" x2="436.66" y2="192.75"/><polyline class="cls-4" points="425.27 148.67 443.65 146.97 460.45 138.36 481.17 122.22 483.31 105.38 494.57 74.86 497.6 45.22 494.92 5.67"/><polyline class="cls-4" points="422 30.86 497.6 43.06 481.7 61.82 475.99 68.26 460 101.5"/><polyline class="cls-4" points="460.27 136.41 422 92.6 411.25 117.71"/><line class="cls-4" x1="442.22" y1="66.18" x2="433.12" y2="88.88"/><polyline class="cls-4" points="424.71 35.11 441.89 42.42 458.35 47.03 487.55 54.92 496.36 57.37 511.5 59.68"/><polyline class="cls-4" points="512.07 77.53 494.57 74.86 455.87 60.94 437.83 53.75"/><polyline class="cls-4" points="472.15 50.76 470.99 56.64 495.46 66.18"/><line class="cls-4" x1="501.55" y1="116.25" x2="507.14" y2="156.56"/><line class="cls-4" x1="481.61" y1="135" x2="504.34" y2="134.22"/><line class="cls-4" x1="481.79" y1="146.97" x2="506.06" y2="148.78"/><polyline class="cls-4" points="434.73 124.92 435.76 132.55 428.44 132.55"/><line class="cls-4" x1="396.09" y1="126.31" x2="416.24" y2="128.73"/><line class="cls-4" x1="418.32" y1="133.33" x2="411.25" y2="132.55"/><line class="cls-4" x1="404.34" y1="142.98" x2="418.32" y2="139.59"/><line class="cls-4" x1="397.49" y1="119.72" x2="404.34" y2="120.64"/><polyline class="cls-4" points="397 97.42 392.7 110.68 391.41 119.72 385.15 133.83"/><polyline class="cls-4" points="359.44 108.32 357.38 116.31 355.33 129.34 321.83 121.16 326.66 107.52"/><line class="cls-4" x1="369.15" y1="108.32" x2="367.99" y2="118.59"/><polyline class="cls-4" points="363.44 119.72 375.03 120.64 375.03 127.02"/><line class="cls-4" x1="376.59" y1="108.83" x2="375.69" y2="115.63"/><line class="cls-4" x1="380.1" y1="82.27" x2="373.36" y2="108.32"/><line class="cls-4" x1="389.7" y1="84.35" x2="382.47" y2="109.38"/><line class="cls-4" x1="347.5" y1="110.08" x2="341.6" y2="123.37"/><line class="cls-4" x1="490.79" y1="85.09" x2="459.8" y2="76.07"/><line class="cls-4" x1="491.83" y1="82.27" x2="464.04" y2="73.12"/><polyline class="cls-4" points="416.97 68.26 423.57 76.07 419.73 86.7 425.27 88.88 446.51 29.49 427.22 23.59"/><line class="cls-4" x1="417.89" y1="66.18" x2="431.17" y2="72.37"/><polyline class="cls-4" points="368.28 30.86 374.09 42 433.92 64.7"/><line class="cls-4" x1="367.43" y1="57.37" x2="374.09" y2="42"/><polyline class="cls-4" points="385.15 74.95 387 46.9 389.7 30.86 390.91 23.59 398.6 4.5"/><line class="cls-4" x1="371.39" y1="22.97" x2="387" y2="30.86"/><line class="cls-4" x1="375.29" y1="13.08" x2="391.87" y2="20.61"/><line class="cls-4" x1="388.98" y1="35.11" x2="399.11" y2="39.72"/><polyline class="cls-4" points="400.07 86.6 411.61 56.24 420.09 32.89"/><line class="cls-4" x1="424.16" y1="47.39" x2="415.61" y2="45.22"/><line class="cls-4" x1="401.55" y1="52.6" x2="394.57" y2="83.68"/><line class="cls-4" x1="387" y1="13.82" x2="403.21" y2="20.61"/><line class="cls-4" x1="351.43" y1="36.28" x2="345.7" y2="51.35"/><polyline class="cls-4" points="335.28 35.11 339.89 19.27 372.6 19.9"/><polyline class="cls-4" points="337.81 63.3 324.44 61.78 321.83 69.75"/><polyline class="cls-4" points="317.81 72.3 313.81 81.56 317.01 85.42"/><line class="cls-4" x1="327.28" y1="62.1" x2="328.67" y2="55.94"/><line class="cls-4" x1="334.24" y1="56.24" x2="340.64" y2="57.31"/><line class="cls-4" x1="335.28" y1="43.81" x2="342.24" y2="45.22"/><polyline class="cls-4" points="281.41 5.67 272.25 25.11 267.83 52.83 265.28 55.94"/><polyline class="cls-4" points="312.29 4.5 308.79 17.33 329.31 26.17"/><polyline class="cls-4" points="279.86 8.94 302.18 18.7 304.46 4.5"/><line class="cls-4" x1="241.23" y1="15.33" x2="248.88" y2="10.24"/><line class="cls-4" x1="255.54" y1="12.33" x2="251.31" y2="22.33"/><polyline class="cls-4" points="260.96 8.94 252.51 28.69 237.45 55.37 232.45 71.31 237.16 79.03 236.5 85.93"/><line class="cls-4" x1="265.28" y1="13.57" x2="260.21" y2="22.33"/><line class="cls-4" x1="270.39" y1="14.08" x2="264.77" y2="26.17"/><line class="cls-4" x1="223.09" y1="16.17" x2="232.45" y2="22.19"/><line class="cls-4" x1="239.51" y1="23.69" x2="247.58" y2="29.64"/><polyline class="cls-4" points="482.42 158.35 468 196.33 459.25 210.17"/><polyline class="cls-4" points="511.5 170.09 498.67 171 479.93 164.9"/><line class="cls-4" x1="474.78" y1="178.46" x2="498.67" y2="171"/><polyline class="cls-4" points="504.34 156.56 503 192.75 498.67 204.9 492.98 215.91"/><polyline class="cls-4" points="459.45 212.41 473.17 213.12 496.83 216.69 511.5 215.91"/><polyline class="cls-4" points="465.55 200.2 488 200.2 511.5 209.42"/><polyline class="cls-4" points="468.68 194.54 477.33 194.72 511.5 184.63"/><line class="cls-4" x1="488" y1="200.2" x2="486.4" y2="192.04"/><polyline class="cls-4" points="511.5 204.9 499.9 201.43 495.72 189.29 493.93 181.54 511.5 179.52"/><line class="cls-4" x1="470.96" y1="188.54" x2="493.93" y2="181.54"/><line class="cls-4" x1="481.61" y1="200.2" x2="479.93" y2="213.3"/><line class="cls-4" x1="443.5" y1="159" x2="459.9" y2="175.96"/><polyline class="cls-4" points="402.75 141.69 412 164 430.08 159.67"/><line class="cls-4" x1="420.84" y1="150.64" x2="407.74" y2="153.73"/><polyline class="cls-4" points="419.9 162.11 416.24 151.73 411.33 146.27"/><line class="cls-4" x1="473.17" y1="213.12" x2="473.17" y2="236.14"/><line class="cls-4" x1="490.09" y1="215.67" x2="491.86" y2="234.52"/><line class="cls-4" x1="511.5" y1="222.02" x2="491.45" y2="230.16"/><polyline class="cls-4" points="260.62 153.73 230.55 129.34 222.55 135.63 210.52 159.69 223.1 177.26 172.43 226.63 117.11 245.34 90.57 256.22 76.08 266.21 86.1 279.85"/><polyline class="cls-4" points="7.14 294.26 26.27 270.88 31.8 262.56 42.98 246.24 88.83 204.59 157.47 144.32 210.26 78.36"/><polyline class="cls-4" points="151.95 97.18 201.72 119.7 222.55 135.63"/><polyline class="cls-4" points="137.38 265.89 128.42 238.36 101.05 195.61 91.93 187.99 108.25 169.12 134.6 124.27 150.09 97.98 163.82 69.75"/><line class="cls-4" x1="159.92" y1="100.78" x2="140.49" y2="129.34"/><polyline class="cls-4" points="168.35 104.6 146.09 134.22 123.1 160.5"/><line class="cls-4" x1="179.14" y1="109.48" x2="153.38" y2="140.65"/><polyline class="cls-4" points="163.82 150.18 184.45 128.27 198.73 134.22"/><polyline class="cls-4" points="173.47 160.5 177.98 152.75 167.59 146.16"/><line class="cls-4" x1="214.98" y1="150.77" x2="197.69" y2="139.22"/><line class="cls-4" x1="220.75" y1="139.22" x2="200.94" y2="123.49"/><line class="cls-4" x1="211.58" y1="156" x2="196.39" y2="145.53"/><polyline class="cls-4" points="192.53 164.26 206.34 174.53 206.34 178.84 198.73 187.5 193.5 187.99"/><polyline class="cls-4" points="231.37 225.23 230.68 207.58 216.81 192.05 213.48 184.63 206.34 178.84"/><polyline class="cls-4" points="216.67 168.27 211.83 171.52 207.44 169.9 206.34 174.53"/><line class="cls-4" x1="164.93" y1="92.84" x2="180.01" y2="100.78"/><line class="cls-4" x1="118.53" y1="131.35" x2="126.06" y2="138.8"/><polyline class="cls-4" points="94.5 125.71 150.2 173.04 186.18 213.23 206.34 244.27"/><line class="cls-4" x1="192.17" y1="249.26" x2="182.39" y2="216.93"/><line class="cls-4" x1="188.05" y1="250.61" x2="176.07" y2="223.09"/><polyline class="cls-4" points="179.14 220.09 153.38 192.26 127.87 170.31 114.28 158.86 87.99 135.63"/><polyline class="cls-4" points="81.53 144.99 108.25 169.12 144.33 203.21 164.93 229.17"/><polyline class="cls-4" points="177.98 253.8 153.32 233.1 108.25 187.5 99.26 179.52"/><line class="cls-4" x1="101.87" y1="176.5" x2="75.49" y2="153.33"/><line class="cls-4" x1="134.22" y1="193.66" x2="113.87" y2="215.65"/><line class="cls-4" x1="111.79" y1="184.43" x2="130.68" y2="197.48"/><polyline class="cls-4" points="177.98 164.69 159.38 183.3 153.38 192.26 144.33 203.21 135.3 214.86 115.26 229.17"/><polyline class="cls-4" points="143.43 223.09 135.24 231.06 138.62 238.07"/><line class="cls-4" x1="142.22" y1="236.85" x2="150.2" y2="262.17"/><polyline class="cls-4" points="156.7 235.93 163.43 258.25 179.82 289.01 188.05 312.83"/><line class="cls-4" x1="156.7" y1="218.79" x2="169.13" y2="209.28"/><line class="cls-4" x1="182.06" y1="178.84" x2="165.63" y2="190.28"/><line class="cls-4" x1="173.84" y1="190.28" x2="190.95" y2="178.84"/><line class="cls-4" x1="172.56" y1="198.02" x2="193.02" y2="184.99"/><line class="cls-4" x1="180.83" y1="207.25" x2="195.75" y2="193.66"/><line class="cls-4" x1="150.2" y1="173.04" x2="167.59" y2="153.91"/><line class="cls-4" x1="163.82" y1="241.91" x2="182.06" y2="236.85"/><line class="cls-4" x1="170.99" y1="247.94" x2="169.13" y2="240.43"/><line class="cls-4" x1="214.19" y1="196.93" x2="200.5" y2="209.28"/><polyline class="cls-4" points="211.58 206.47 202.15 214.77 214.19 213.3 225.5 202.04"/><polyline class="cls-4" points="205.19 225.23 214.19 216.66 220.75 223.09 226.68 216.66 231.15 219.55"/><polyline class="cls-4" points="108.7 248.79 83.42 209.5 55.82 176.13 57.33 195.61 66.93 224.48"/><polyline class="cls-4" points="62.64 228.37 77.42 245.74 88.02 238.07"/><polyline class="cls-4" points="99.22 252.68 74.09 217.98 60.89 198.02 42.01 182.88 20.44 167.25"/><line class="cls-4" x1="72" y1="249.51" x2="66.5" y2="252.68"/><polyline class="cls-4" points="76.08 266.21 53.5 236.68 23.09 214.77"/><polyline class="cls-4" points="7.14 198.02 24.28 219.55 36.34 236.85 67.89 274.55"/><line class="cls-4" x1="9.24" y1="250.61" x2="42.98" y2="246.24"/><line class="cls-4" x1="33.73" y1="259.74" x2="2" y2="235.93"/><polyline class="cls-4" points="2 228.37 26.11 211.87 59.71 173.04"/><line class="cls-4" x1="16.1" y1="209.28" x2="37.51" y2="188.54"/><line class="cls-4" x1="11.19" y1="203.1" x2="24.54" y2="190.95"/><line class="cls-4" x1="30.95" y1="167.82" x2="2" y2="193.66"/><polyline class="cls-4" points="26.81 167.34 20.44 160.5 2 153.91"/><polyline class="cls-4" points="2 159.53 32.25 121.44 50.85 104.6"/><polyline class="cls-4" points="74.98 74.51 58.01 95.16 72 110.81 95 90.88"/><line class="cls-4" x1="103.78" y1="110.81" x2="79.52" y2="88.88"/><polyline class="cls-4" points="65.54 86 74.98 97.98 95 99.25"/><polygon class="cls-4" points="60.68 69.45 52.43 77.68 60.68 86 69.15 77.17 60.68 69.45"/><line class="cls-4" x1="2" y1="48.47" x2="20.77" y2="36.5"/><polyline class="cls-4" points="76.5 151.96 50.85 136.17 23.33 167.25"/><line class="cls-4" x1="14.93" y1="143.24" x2="43.24" y2="169.63"/><polyline class="cls-4" points="59.71 156.44 63.82 148.21 50.85 136.17 17.86 109.48"/><polyline class="cls-4" points="41.52 215.65 46.86 221.39 53.29 215.65 47.4 209.96"/><line class="cls-4" x1="45.22" y1="214.03" x2="49.92" y2="218.66"/><line class="cls-4" x1="47.57" y1="220.76" x2="59.11" y2="231.59"/><line class="cls-4" x1="52.16" y1="216.66" x2="61.63" y2="228.37"/><line class="cls-4" x1="26.35" y1="222.52" x2="46.86" y2="242"/><line class="cls-4" x1="100.94" y1="221.39" x2="94.5" y2="226.72"/><line class="cls-4" x1="108.7" y1="232.66" x2="101.8" y2="238.07"/><line class="cls-4" x1="90.57" y1="256.22" x2="102.54" y2="275.58"/><line class="cls-4" x1="105.25" y1="250.61" x2="113.87" y2="272.5"/><line class="cls-4" x1="112.84" y1="247.09" x2="123.23" y2="269.9"/><polyline class="cls-4" points="109.8 262.17 113.87 262.17 118.03 271.35"/><line class="cls-4" x1="68.44" y1="256.22" x2="35.92" y2="282.39"/><line class="cls-4" x1="60.81" y1="255.18" x2="64.62" y2="259.3"/><polyline class="cls-4" points="2 257.24 22.81 266.76 26.27 270.88 2 291.15"/><line class="cls-4" x1="4.86" y1="282.9" x2="16.47" y2="263.86"/><polyline class="cls-4" points="4.86 337.49 13.11 337.49 16.47 343.53 92.85 289.11"/><line class="cls-4" x1="99.22" y1="286.7" x2="113.92" y2="280.88"/><polyline class="cls-4" points="112.84 272.79 118.03 292.29 137.6 286.7"/><line class="cls-4" x1="140.18" y1="294.26" x2="125.22" y2="299.33"/><line class="cls-4" x1="142.66" y1="301.47" x2="74.44" y2="317.55"/><polyline class="cls-4" points="85.63 294.26 109.8 348.23 112.84 358.97 144.54 355.28"/><polyline class="cls-4" points="150.2 323.3 123.23 332.09 118.03 358.36 122.35 387.29"/><polyline class="cls-4" points="77.56 381.77 113.92 376.51 158.5 374.5 173.75 383.27 191.53 403.09 268.62 400.15 378.41 404.29 441.72 404.29 470.7 407.89 494.41 415.18 511.5 425.56"/><polyline class="cls-4" points="112.84 358.97 42.98 360.97 16.47 343.53 4.86 352.25"/><line class="cls-4" x1="4.86" y1="344.65" x2="75.61" y2="341.52"/><polyline class="cls-4" points="50.89 319 67.89 341.86 68.44 352.25 76.37 360.01"/><line class="cls-4" x1="42.98" y1="343.09" x2="44.21" y2="385.05"/><polyline class="cls-4" points="77.56 384.35 42.98 360.97 50.89 353.6 49.58 343.09"/><line class="cls-4" x1="67.89" y1="347.11" x2="50.08" y2="347.11"/><line class="cls-4" x1="68.44" y1="352.25" x2="50.89" y2="353.6"/><polyline class="cls-4" points="28.08 351.17 20.44 361.88 23.09 365"/><polyline class="cls-4" points="42.98 360.97 28.08 363.72 2 378.89"/><line class="cls-4" x1="33.78" y1="385.63" x2="33.73" y2="372.17"/><line class="cls-4" x1="45.19" y1="293.47" x2="33.73" y2="299.33"/><line class="cls-4" x1="50.89" y1="300.29" x2="34.59" y2="308.88"/><line class="cls-4" x1="56.23" y1="306.67" x2="44.21" y2="315.11"/><line class="cls-4" x1="39.46" y1="327.15" x2="39.46" y2="338.61"/><line class="cls-4" x1="108.55" y1="313.87" x2="146.21" y2="311.78"/><polyline class="cls-4" points="138.62 375.4 138.62 367.92 202.41 245.74"/><line class="cls-4" x1="119.53" y1="368.38" x2="138.62" y2="367.92"/><line class="cls-4" x1="146.8" y1="352.25" x2="159.33" y2="349.26"/><polyline class="cls-4" points="172.57 302.9 146.8 263.17 205.19 308.88 170.99 316.32"/><line class="cls-4" x1="173.75" y1="255.11" x2="179.82" y2="289.01"/><line class="cls-4" x1="193.53" y1="262.74" x2="176.09" y2="268.2"/><line class="cls-4" x1="206.34" y1="289.01" x2="185.51" y2="293.47"/><line class="cls-4" x1="205.76" y1="294.26" x2="225.61" y2="293.47"/><line class="cls-4" x1="230.49" y1="307.99" x2="205.19" y2="308.88"/><line class="cls-4" x1="204.72" y1="323.3" x2="234.3" y2="319"/><line class="cls-4" x1="204.26" y1="338.45" x2="239.64" y2="334.26"/><polyline class="cls-4" points="213.82 375.75 207.55 351.17 208.34 340.4"/><line class="cls-4" x1="96.55" y1="295.4" x2="104.18" y2="292.29"/><line class="cls-4" x1="106.57" y1="377.57" x2="109.8" y2="397.62"/><line class="cls-4" x1="118.03" y1="381.67" x2="107.49" y2="383.27"/><polyline class="cls-4" points="82.5 385 97.61 401.19 102.54 416.99 108.19 444.67 141.32 461.67 157.36 466.52"/><polyline class="cls-4" points="152.08 454.83 144.54 454.83 118.03 441.09 107.49 441.09"/><polyline class="cls-4" points="108.19 444.67 101.72 450.5 82.08 453.76 69.95 460.16 52.31 483.34"/><polyline class="cls-4" points="118.03 441.09 120.98 413.97 119.93 394.58"/><line class="cls-4" x1="153.7" y1="409.6" x2="120.69" y2="408.58"/><line class="cls-4" x1="97" y1="465.25" x2="104.85" y2="453.76"/><line class="cls-4" x1="101.72" y1="450.5" x2="121.95" y2="462.91"/><line class="cls-4" x1="125.91" y1="453.76" x2="115.09" y2="478.75"/><line class="cls-4" x1="129.07" y1="487.13" x2="147.61" y2="444.67"/><line class="cls-4" x1="99.7" y1="466.52" x2="82.5" y2="501.5"/><path class="cls-4" d="m102.61,510.67s-8.73-10.52-22.38-8.5c-13.65,2.01-14.68-7.07-14.68-7.07l-1.93-6.4-61.63-29.2"/><polyline class="cls-4" points="17 485.09 24.26 470.05 41.53 435.23 2 454.83"/><polyline class="cls-4" points="31.05 421.26 14.68 400.59 61.58 391.19"/><line class="cls-4" x1="46.23" y1="467.76" x2="34.49" y2="449.43"/><polyline class="cls-4" points="168.62 384.04 170.52 401.77 155.71 462.91 146.8 494.36 138.34 514.5"/><line class="cls-4" x1="191" y1="512.69" x2="184.19" y2="482.98"/><line class="cls-4" x1="173.75" y1="512.69" x2="186.26" y2="492"/><line class="cls-4" x1="217.27" y1="478.75" x2="203.75" y2="502.34"/><polyline class="cls-4" points="220.38 421.26 198.01 423.47 192.16 480.88"/><line class="cls-4" x1="199.5" y1="478.95" x2="212.01" y2="422.08"/><line class="cls-4" x1="216.1" y1="474.61" x2="219.71" y2="420.72"/><line class="cls-4" x1="238.52" y1="435.8" x2="218.76" y2="433.62"/><line class="cls-4" x1="231.17" y1="493.09" x2="244.63" y2="473.64"/><line class="cls-4" x1="269.3" y1="489.54" x2="255.18" y2="514.5"/><line class="cls-4" x1="274.85" y1="497.83" x2="264.36" y2="514.5"/><line class="cls-4" x1="170.52" y1="429.4" x2="191.53" y2="438.17"/><polyline class="cls-4" points="399.73 404.29 402.32 370.44 442.5 374.5"/><polyline class="cls-4" points="415.01 365.57 412.28 404.29 405.46 442.6 387.34 440"/><polyline class="cls-4" points="511.5 395.54 475.97 382.01 442.5 374.5 426.89 361.05 423 372.53"/><line class="cls-4" x1="494.41" y1="415.18" x2="503.11" y2="392.35"/><polyline class="cls-4" points="416.25 456.52 420.96 435 441.55 432.69 465.17 437.47 511.5 448.91"/><polyline class="cls-4" points="511.5 456.52 495.81 455 441.1 440 403.45 431.6"/><line class="cls-4" x1="411.04" y1="443.37" x2="412.41" y2="433.6"/><polyline class="cls-4" points="358.54 417.04 385.37 420.09 428.86 420.09 428.86 404.09"/><polyline class="cls-4" points="460 238.54 460.78 251.62 463.11 293.07 460.04 301.12 457.53 313.99 455.05 344.42 452.36 351.43 442.5 374.5 441.72 404.29 441.1 440 439.98 463.36 439.18 501.05"/><line class="cls-4" x1="469.19" y1="416.88" x2="441.55" y2="414.4"/><polyline class="cls-4" points="511.5 435 486.97 424.78 478.74 440.82"/><polyline class="cls-4" points="428.86 434.11 428.86 420.09 441.43 421.54"/><polyline class="cls-4" points="385.37 420.09 406.86 404.09 405.15 420.09"/><line class="cls-4" x1="431.61" y1="359.27" x2="449.01" y2="359.27"/><line class="cls-4" x1="448.25" y1="361.05" x2="477.15" y2="369.45"/><line class="cls-4" x1="478.24" y1="362.95" x2="491.31" y2="365.57"/><line class="cls-4" x1="489.3" y1="353.66" x2="487.28" y2="364.26"/><line class="cls-4" x1="511.5" y1="347.61" x2="481.76" y2="341.99"/><polyline class="cls-4" points="510.68 358 471.94 350.4 433.05 340.02 409.4 330.84"/><line class="cls-4" x1="512.23" y1="269.82" x2="473.76" y2="265.66"/><line class="cls-4" x1="490.18" y1="293.59" x2="494.88" y2="267.95"/><polyline class="cls-4" points="480.02 276.48 470.67 326.54 482.34 338.5 469.19 416.88 458.99 469.03"/><polyline class="cls-4" points="461.24 259.74 427.47 259.74 424.37 287.18 419.26 306.7 411.2 323.28 404.07 347.61 401.17 361.05 392.87 374.09"/><line class="cls-4" x1="370.31" y1="382.85" x2="379.89" y2="361.05"/><polyline class="cls-4" points="346.18 361.05 401.17 361.05 426.89 361.05"/><polyline class="cls-4" points="404.07 347.61 416.78 351.64 420.49 361.05"/><polyline class="cls-4" points="434.98 358 428.86 346.53 449.01 313.18"/><line class="cls-4" x1="416.78" y1="351.64" x2="428.86" y2="346.53"/><line class="cls-4" x1="428.86" y1="338.4" x2="433.96" y2="319.52"/><polyline class="cls-4" points="418.98 326.12 355.06 303.14 339.05 353.66"/><line class="cls-4" x1="372.22" y1="355.28" x2="340.97" y2="347.61"/><line class="cls-4" x1="379.89" y1="349.52" x2="343.6" y2="339.29"/><polyline class="cls-4" points="382.22 330.84 349.24 321.5 317.31 312.41"/><polyline class="cls-4" points="376.15 352.28 379.01 341.99 401.17 276.4 405.98 274.94 415.01 305.36"/><polyline class="cls-4" points="453.82 311.13 419.26 306.7 393.66 298.64 355.06 295 308.48 281.13 279.52 263.17 221.21 234.9"/><polyline class="cls-4" points="214.19 255.11 231.91 249.26 237.1 242.6"/><line class="cls-4" x1="249.64" y1="230.16" x2="240.03" y2="244.02"/><polyline class="cls-4" points="218.86 269.51 226.79 263.17 243.57 245.74 266.65 237.62"/><polyline class="cls-4" points="231.91 249.26 237.1 253 258.91 264.34"/><line class="cls-4" x1="225.64" y1="264.08" x2="257.04" y2="274.94"/><line class="cls-4" x1="229.12" y1="303.97" x2="255.36" y2="298.96"/><polyline class="cls-4" points="223.15 285.61 247.98 277.42 296.9 295"/><line class="cls-4" x1="270.8" y1="306.67" x2="276.64" y2="283.61"/><line class="cls-4" x1="270.8" y1="285.62" x2="273.72" y2="278.5"/><polyline class="cls-4" points="260.03 339.29 268.33 326.17 304.68 284.85 324.61 261.71"/><polyline class="cls-4" points="286.25 355.29 289.71 323.3 299 298.33 302.84 286.95"/><polyline class="cls-4" points="288.25 335.06 283.67 335.06 283.67 340.4"/><polyline class="cls-4" points="324.61 334.26 318.98 357.22 320.24 402.09"/><polyline class="cls-4" points="267.11 394.33 242.24 393.58 264.36 382.85 348.35 387.29"/><polyline class="cls-4" points="323.11 340.4 302.84 331.55 300.38 356.96 297.69 384.61 299.29 427.75 292.32 455.34 293.48 474.61 281.23 512.69"/><polyline class="cls-4" points="289.85 510.36 293.29 504.45 299.42 506.17 296.93 512.69"/><polyline class="cls-4" points="305.55 452 306.5 479.73 295.79 505.15"/><polyline class="cls-4" points="302.17 503.25 306.5 493.09 305.67 481.71"/><polyline class="cls-4" points="287.29 493.87 283.17 472.36 306.18 470.22"/><line class="cls-4" x1="285.23" y1="482.98" x2="275.68" y2="492.93"/><polyline class="cls-4" points="313.58 500.6 330.77 503.25 346.43 508.95"/><line class="cls-4" x1="366.21" y1="497.03" x2="362.68" y2="508.95"/><line class="cls-4" x1="370.31" y1="512.69" x2="385.22" y2="460.4"/><line class="cls-4" x1="357.35" y1="476" x2="378.78" y2="482.98"/><polyline class="cls-4" points="340.97 475.59 346.43 477.25 382.42 470.22 344.64 465.25 329.83 460.4"/><line class="cls-4" x1="346.92" y1="458.67" x2="331.79" y2="453.32"/><polyline class="cls-4" points="326.5 446.7 318.19 468.83 326.5 470.22 334.5 444.68"/><polyline class="cls-4" points="304.34 428.78 316.34 449.27 323.11 432.63 329.83 402.46 337.52 371.17"/><line class="cls-4" x1="333.3" y1="371.17" x2="337.52" y2="355.29"/><line class="cls-4" x1="340.97" y1="371.95" x2="344.59" y2="359.27"/><polyline class="cls-4" points="310.04 406.65 308.76 417.83 325.45 422.12"/><line class="cls-4" x1="326.99" y1="415.21" x2="356.82" y2="425.35"/><polyline class="cls-4" points="342.78 436.9 349.24 403.19 346.99 391.99"/><polyline class="cls-4" points="281.23 400.62 281.23 414.38 288.25 414.38 288.25 400.89"/><polyline class="cls-4" points="250.13 367.92 255.18 388.59 252.76 402.09 252.76 418 237.67 469.16 273.12 492"/><line class="cls-4" x1="235.66" y1="401.41" x2="235.66" y2="415.21"/><line class="cls-4" x1="279.63" y1="442.6" x2="252.44" y2="419.08"/><polyline class="cls-4" points="419.51 457.45 409.31 483.94 386.26 476"/><line class="cls-4" x1="385.37" y1="457.53" x2="415.72" y2="467.29"/><polyline class="cls-4" points="427.88 459.84 417.73 487.26 411.04 512.69"/><line class="cls-4" x1="388.57" y1="487.96" x2="414.89" y2="498.05"/><line class="cls-4" x1="390.08" y1="493.87" x2="413.59" y2="502.99"/><line class="cls-4" x1="435" y1="502.99" x2="427.05" y2="491.03"/><line class="cls-4" x1="417.73" y1="487.26" x2="439.18" y2="494.67"/><line class="cls-4" x1="460.9" y1="500.6" x2="488.76" y2="514.5"/><polyline class="cls-4" points="482.34 514.5 491.18 485.09 511.5 493"/><polyline class="cls-4" points="439.18 487.96 461.24 486.55 484.97 477.25"/><line class="cls-4" x1="474.83" y1="473.96" x2="491.06" y2="453.7"/><line class="cls-4" x1="495.12" y1="474.75" x2="503.11" y2="455.71"/><line class="cls-4" x1="471.53" y1="459.84" x2="471.53" y2="472.91"/><line class="cls-4" x1="462.07" y1="469.97" x2="461.24" y2="486.55"/><line class="cls-4" x1="453.22" y1="467.29" x2="453.22" y2="487.26"/><line class="cls-4" x1="449.71" y1="465.23" x2="448.25" y2="487.38"/><line class="cls-4" x1="444.35" y1="465.23" x2="444.35" y2="487.62"/><polyline class="cls-4" points="440.52 470.7 457 477.27 482.48 476.43"/><line class="cls-4" x1="511.5" y1="498.43" x2="489.1" y2="492"/><polyline class="cls-4" points="346.43 477.25 345.91 492 273.67 493.87"/><line class="cls-4" x1="339.56" y1="479.49" x2="354.72" y2="483.94"/><line class="cls-4" x1="181.57" y1="391.99" x2="201.38" y2="391.99"/><polyline class="cls-4" points="294.55 249.26 287.22 267.95 319.42 267.74 327.29 286.21 314.49 319.8 282.9 310.57 255.38 301.46"/><line class="cls-4" x1="352.12" y1="312.41" x2="321.48" y2="301.46"/><line class="cls-4" x1="355.06" y1="303.14" x2="356.59" y2="295"/><line class="cls-4" x1="355.83" y1="266.88" x2="361.75" y2="282.92"/><line class="cls-4" x1="426.36" y1="268.76" x2="355.06" y2="290.38"/><polyline class="cls-4" points="360.23 288.82 365.66 270.86 363.51 264.34"/><line class="cls-4" x1="363.02" y1="279.57" x2="377.91" y2="276.48"/><line class="cls-4" x1="374.09" y1="267.74" x2="365.66" y2="270.86"/><polyline class="cls-4" points="320.93 265.99 330.57 273.02 330.57 282.06 327.29 286.21"/><polyline class="cls-4" points="333.3 288.52 335.41 282.06 355.5 286.95"/><polyline class="cls-4" points="351.66 276.48 335.41 272.39 335.41 265.32"/><polyline class="cls-4" points="362.94 314.51 367.43 323.3 382.98 313.18"/><line class="cls-4" x1="362.94" y1="333.08" x2="356.59" y2="361.05"/><line class="cls-4" x1="399.73" y1="306.93" x2="410.16" y2="311.13"/><line class="cls-4" x1="409.4" y1="303.6" x2="407" y2="309.86"/><line class="cls-4" x1="424.37" y1="287.18" x2="463.11" y2="293.07"/><line class="cls-4" x1="435.35" y1="309.03" x2="439.18" y2="289.43"/><line class="cls-4" x1="421.11" y1="297.84" x2="436.66" y2="302.3"/><polyline class="cls-4" points="460.04 308.45 480.77 312.41 488.29 310.43 490.98 294.92"/><polyline class="cls-4" points="505.66 298.48 499.67 315.47 488.29 310.43"/><polyline class="cls-4" points="402.75 251.81 408.2 270.86 421.11 254.78 427.4 255.51 428.89 244.89"/><line class="cls-4" x1="255.36" y1="290.38" x2="273.72" y2="295"/><line class="cls-4" x1="245.47" y1="300.66" x2="243.69" y2="288.52"/><line class="cls-4" x1="249.64" y1="291.24" x2="238.26" y2="292.29"/><line class="cls-4" x1="291.3" y1="300.07" x2="279.8" y2="298.96"/><path class="cls-4" d="m243.69,344.42s4.51-1.93,5.94,0c0,0,1.64-5.6,7.11-2.73,0,0,.86-1.28,4.29-1.28h26.83"/><line class="cls-4" x1="247.98" y1="357" x2="264.19" y2="351.64"/><line class="cls-4" x1="249.64" y1="344.41" x2="253.13" y2="355.29"/><line class="cls-4" x1="256.75" y1="341.67" x2="260.03" y2="353.02"/><path class="cls-4" d="m262.91,188.54l-8.39,8.39-35.66-36.96s-2.03-2.88,2.35-6.67c4.38-3.79,6.91-.55,6.91-.55l34.79,35.79Z"/><line class="cls-4" x1="218.86" y1="159.97" x2="210.52" y2="159.69"/><line class="cls-4" x1="227.47" y1="152.17" x2="228.12" y2="131.25"/><line class="cls-4" x1="247.15" y1="142.8" x2="221.45" y2="168.27"/><path class="cls-4" d="m248.8,204.65l-23.95-23.11,17.39-17.28s4.61-3.24,7.65-4.43,6.93-1.75,6.32-5.12-10.52-10.47-10.52-10.47"/><polyline class="cls-4" points="236.38 170.09 255.01 188.54 250.93 193.22"/><line class="cls-4" x1="248.96" y1="174.2" x2="240.65" y2="182.55"/><line class="cls-4" x1="251.11" y1="201.43" x2="228.12" y2="178.46"/><polyline class="cls-4" points="227.47 174.44 213.83 159.69 228.12 134.22 243.75 146.16 260.21 186.31 252.21 194.54"/><line class="cls-4" x1="247.15" y1="206.41" x2="231.15" y2="190.73"/><polyline class="cls-4" points="257.42 179.52 260.62 178.46 259.02 170.09"/><path class="cls-1" d="m2,2s36.5,44.5,59,61.5,101,83,108,92,18,15.5,21,21,29,96,34.5,113.5,22.5,65,22.5,65c0,0,5,12,12.5,10,0,0,8.96-.5,3.48-18-5.48-17.5-15.67-57.25,3.67-109.38,0,0,26.64,54.38,34.99,64.38,8.35,10,32.35,48,38.85,53s10.5,14.5,16,21,7,15,17,23,17,28.5,12.5,53.5,11,62,11,62"/><path class="cls-1" d="m426.36,38.01s-4.36,22.49-12.36,35.99-18.86,47.71-19.43,64.36"/><path class="cls-1" d="m239.51,69.03l29.53,118.47s-2.54-19.5,3.96-31.5,21.43-53.41,21.43-53.41"/><line class="cls-1" x1="190" y1="176.5" x2="225.5" y2="4.5"/><path class="cls-1" d="m175,4.5s5.9,37.5,57.45,28c51.55-9.5,137.05-28,137.05-28"/><line class="cls-1" x1="335.28" y1="11.79" x2="323.33" y2="40.54"/><path class="cls-1" d="m158.5,4.5s-46.76,109.87-100.49,170.49"/><path class="cls-1" d="m2,242s117.5,139.5,121.5,147,40.5,97.21,45,98.11,20.83-24.61,20.83-24.61"/><path class="cls-1" d="m161.56,475.41s10.23-22.41,17.59-18.41c7.36,4,30.66,12.47,45.51,28.73,14.85,16.27,23.28,28.77,23.28,28.77"/><polyline class="cls-1" points="353 440 212.94 475.41 168.5 487.11 157.36 514.5"/><line class="cls-6" x1="292.32" y1="455.34" x2="271.1" y2="485.09"/><path class="cls-1" d="m2,388s61-5.5,80.5-3,226,44.5,252,50,152.5,40.02,177,52.26"/><path class="cls-1" d="m2,435.8s20.5-12.3,38-17.8,70.62-20.25,85.31-25.13c14.69-4.87,43.22-8.87,60.7-11.37,17.48-2.5,64.48-15,73.48-16.5,0,0,4.87.11,4.98-5.4,0,0,11.68-7.1,33.1-3.1,21.42,4,37.2-4.19,45.56.9"/><path class="cls-1" d="m264.36,456.52l-59.79-47.95s-5.82-21.29-2.69-30.68c3.13-9.39,2.09-103.89,8.36-135.89"/><path class="cls-1" d="m87.5,279.5s16,30.5,32.5,49,36.5,38,38.5,46-11.86,67.94-11.86,67.94l29.35,14.08"/><path class="cls-1" d="m2,416s22.5,9,36.5,17.5,41.5,17,50,24.5,28,24,44.5,30.5,42.5,19,49.5,26"/><path class="cls-1" d="m53.5,514.5s27.15-39.47,28.58-60.74c1.42-21.26-5.08-68.14-5.58-89.2-.5-21.06-3.92-81.67-3.92-81.67"/><path class="cls-1" d="m362.68,385.83s-1.68,27.67-9.68,54.17-26.5,74.5-26.5,74.5"/><line class="cls-1" x1="368.17" y1="443.37" x2="344.59" y2="514.5"/><path class="cls-1" d="m413,514.5s32-16.5,44-22.5"/><path class="cls-1" d="m432.25,514.5s41.88-19.81,65.32-32.9"/><line class="cls-1" x1="393.54" y1="505.15" x2="266.11" y2="467.29"/><path class="cls-1" d="m317.74,448.91s4.27,29.59-8.98,65.59"/><line class="cls-1" x1="240.49" y1="504.45" x2="265.02" y2="462.91"/><line class="cls-1" x1="204.57" y1="408.58" x2="182.5" y2="458.67"/><path class="cls-1" d="m45.19,437.12s54.46-26.04,89.13-23.33c34.67,2.71,65.17,6.29,65.17,6.29"/><path class="cls-1" d="m2,492s40.5-17.18,49-29.09c8.5-11.91,15.78-29.7,14.39-38.56-1.39-8.85-4.39-30.66-3.89-40"/><polyline class="cls-1" points="283.24 456.52 259.5 365 389.73 375.3"/><path class="cls-1" d="m334.5,435l18.5-63.72s28.93-26.78,59.96-42.28c31.04-15.5,89.54-33.5,98.54-55"/><path class="cls-1" d="m2,201s39.01-17.02,56.01-26.01"/><path class="cls-2" d="m511.5,321.5s-16,14-68.5,33.5-158.64,61.5-166.57,65.5c-7.93,4-14.17,30.38-11.41,42.41,2.77,12.03,14.84,51.59,14.84,51.59"/><path class="cls-2" d="m2,169.5s49.5-13,78,23.5,51.12,74.68,51.12,74.68c0,0,28.38,83.82,35.38,100.82s16.5,25.5,11,38.5-12,43.5-12,43.5"/><path class="cls-2" d="m2,253s66.5,21,86.5,29,74.79,37,90.64,44.5c15.86,7.5,80.36,38.5,80.36,38.5l24.03,92.56,8.79-2.22-21.22,29.75"/><path class="cls-2" d="m232.45,224.81s31.63-29.31,36.59-37.31c4.96-8,16.96-46,28.46-47.5s81.5-8,89.5-5,46.5,23,56.5,24,55.5-1,68-3"/><path class="cls-2" d="m2,295s53.5-7.5,85.5-15.5,115.44-32,124.97-38c9.53-6,15.44-17.5,22.48-17,7.05.5,101.55,47.5,117.05,43.5s85.5-33,159.5-34.5"/><polyline class="cls-2" points="3.04 391.19 14.68 400.59 13.11 512.69"/><path class="cls-2" d="m2,86s44-27.5,69-41S142,2,142,2"/><path class="cls-2" d="m422,30.86s-45,1.14-61.5.14-24,3.5-33.5,8-74.5,26-103,35-105.4,36.63-105.4,36.63L51.85,55.83,7.14,8.94"/><path class="cls-2" d="m407,4.5s51,87,53,97-2,126.59,0,137.04c2,10.46,51.5,89.96,51.5,89.96"/></g></svg>