<?xml version="1.0" encoding="UTF-8"?><svg id="OBJECTS" xmlns="http://www.w3.org/2000/svg" viewBox="0 0 360.46 360.46"><defs><style>.cls-1{fill:#a4a5d1;}.cls-2{opacity:.2;}.cls-3{fill:none;stroke:#5659a9;stroke-miterlimit:10;stroke-width:3.12px;}.cls-4{fill:#8183bf;}.cls-5{fill:#5659a9;}.cls-6{fill:#8a8bb0;}</style></defs><path class="cls-2" d="m176.35,326.93c17.49.85,108.4-51.8,119.74-69.13,7.96-12.16,8.26-68.74,5.27-106.04,0-.11-.02-.21-.03-.32-.24-3.02-.51-5.91-.8-8.64-.04-.42-.09-.83-.13-1.24-.12-1.07-.24-2.11-.36-3.13-.08-.66-.16-1.33-.24-1.96-.07-.55-.14-1.08-.22-1.61-.09-.69-.19-1.35-.29-2-.06-.42-.12-.85-.19-1.25-.14-.9-.29-1.76-.43-2.58-.06-.32-.11-.62-.17-.92-.15-.77-.29-1.51-.44-2.21-.03-.12-.05-.25-.08-.36-.17-.78-.35-1.49-.53-2.16-.05-.18-.1-.36-.15-.54-.18-.65-.37-1.25-.56-1.77-.22-.6-.44-1.11-.67-1.53-.22-.41-.54-.87-.93-1.36-1.98-2.47-6.04-5.91-11.53-9.93-2.19-1.61-4.62-3.32-7.22-5.09-2.61-1.78-5.4-3.62-8.33-5.52-1.47-.95-2.97-1.91-4.5-2.87-12.26-7.74-26.46-16.02-39.87-23.31-21.78-11.85-41.47-21.07-47.35-21.04-14.48.07-112.41,53.88-119.74,69.13-7.33,15.25-8.15,124.12,0,138.27s102.25,68.29,119.74,69.13Z"/><path class="cls-4" d="m63.16,102.65c7.33-15.25,105.26-69.06,119.74-69.13,14.48-.07,112.6,55.91,119.74,69.13,7.14,13.22,11.34,120.94,0,138.27-11.34,17.33-102.25,69.98-119.74,69.13-17.49-.85-111.59-54.99-119.74-69.13-8.15-14.14-7.33-123.01,0-138.27Z"/><path class="cls-1" d="m308.61,144.93c-1.12-18.76-3.03-34.52-5.3-40.75-4.85,3.4-5.21,12.94-3.87,22.57,1.31,9.41,3.73,16.02,9.17,18.18Z"/><path class="cls-1" d="m237.49,70.37c58.39,32.65,65.15,32.27,65.15,32.27-7.14-13.22-105.26-69.21-119.74-69.13,0,0-3.81,4.21,54.59,36.86Z"/><path class="cls-1" d="m82.82,113.94c6.14-12.76,88.06-57.78,100.18-57.84,12.11-.06,94.2,46.77,100.18,57.84,5.97,11.06,9.49,101.17,0,115.67-9.49,14.5-85.54,58.55-100.18,57.84-14.63-.71-93.36-46.01-100.18-57.84-6.82-11.83-6.14-102.91,0-115.67Z"/><path class="cls-3" d="m63.16,102.65c7.33-15.25,105.26-69.06,119.74-69.13,14.48-.07,112.6,55.91,119.74,69.13,7.14,13.22,11.34,120.94,0,138.27-11.34,17.33-102.25,69.98-119.74,69.13-17.49-.85-111.59-54.99-119.74-69.13-8.15-14.14-7.33-123.01,0-138.27Z"/><path class="cls-1" d="m85.55,120.88c5.85-12.16,83.91-55.05,95.45-55.11,11.54-.06,89.76,44.57,95.45,55.11,5.69,10.54,9.04,96.4,0,110.22-9.04,13.81-81.51,55.79-95.45,55.11-13.94-.68-88.95-43.84-95.45-55.11-6.5-11.27-5.85-98.06,0-110.22Z"/><path class="cls-5" d="m159.96,105.59c.07-.38.26-.69.51-.84,2.87-1.63,7.45-3.23,12.47-4.59,3.03-4.21,6.18-7.8,8.76-9.94.22-.18.59-.28.99-.28.4,0,.77.11.98.29,2.47,2.12,5.48,5.65,8.37,9.8,5.13,1.45,9.83,3.17,12.74,4.9.24.15.43.46.5.84.07.38.02.76-.12,1.02-1.69,3.04-3.99,6.78-7.05,10.79.12,5.02,0,9.75-.32,13.68-.03.33-.25.66-.6.88-.35.21-.76.28-1.11.19-4.04-1.05-8.61-2.22-13.56-3.82-4.97,1.56-9.54,2.7-13.6,3.71-.13.03-.27.04-.41.03-.24-.02-.48-.1-.7-.23-.34-.22-.57-.55-.59-.88-.32-4-.42-8.83-.27-13.93-2.98-3.94-5.23-7.61-6.89-10.6-.15-.26-.19-.65-.12-1.03Z"/><path class="cls-5" d="m103.32,118.67c.07-.38.26-.69.51-.84,2.87-1.63,7.45-3.23,12.47-4.59,3.03-4.21,6.18-7.8,8.76-9.94.22-.18.59-.28.99-.28.4,0,.77.11.98.29,2.47,2.12,5.48,5.65,8.37,9.8,5.13,1.45,9.83,3.17,12.74,4.9.24.15.43.46.5.84.07.38.02.76-.12,1.02-1.69,3.04-3.99,6.78-7.05,10.79.12,5.02,0,9.75-.32,13.68-.03.33-.25.66-.6.88-.35.21-.76.28-1.11.19-4.04-1.05-8.61-2.22-13.56-3.82-4.97,1.56-9.54,2.7-13.6,3.71-.13.03-.27.04-.41.03-.24-.02-.48-.1-.7-.23-.34-.22-.57-.55-.59-.88-.32-4-.42-8.83-.27-13.93-2.98-3.94-5.23-7.61-6.89-10.6-.15-.26-.19-.65-.12-1.03Z"/><path class="cls-5" d="m220.08,119.67c.07-.38.26-.69.51-.84,2.87-1.63,7.45-3.23,12.47-4.59,3.03-4.21,6.18-7.8,8.76-9.94.22-.18.59-.28.99-.28.4,0,.77.11.98.29,2.47,2.12,5.48,5.65,8.37,9.8,5.13,1.45,9.83,3.17,12.74,4.9.24.15.43.46.5.84.07.38.02.76-.12,1.02-1.69,3.04-3.99,6.78-7.05,10.79.12,5.02,0,9.75-.32,13.68-.03.33-.25.66-.6.88-.35.21-.76.28-1.11.19-4.04-1.05-8.61-2.22-13.56-3.82-4.97,1.56-9.54,2.7-13.6,3.71-.13.03-.27.04-.41.03-.24-.02-.48-.1-.7-.23-.34-.22-.57-.55-.59-.88-.32-4-.42-8.83-.27-13.93-2.98-3.94-5.23-7.61-6.89-10.6-.15-.26-.19-.65-.12-1.03Z"/><path class="cls-6" d="m277.59,116.67c-5.69-10.54-83.91-55.17-95.45-55.11-11.54.06-89.61,42.95-95.45,55.11-5.85,12.16-6.5,98.95,0,110.22,6.5,11.27,81.51,54.43,95.45,55.11,13.94.68,86.41-41.29,95.45-55.11,9.04-13.81,5.69-99.68,0-110.22Zm-6.94,106.19c-8.38,12.81-75.55,51.71-88.48,51.08-12.92-.63-82.46-40.63-88.48-51.08-6.02-10.45-5.42-90.9,0-102.17,5.42-11.27,77.78-51.03,88.48-51.08,10.7-.05,83.2,41.31,88.48,51.08,5.28,9.77,8.38,89.36,0,102.17Z"/><path class="cls-3" d="m86.69,116.67c5.85-12.16,83.91-55.05,95.45-55.11,11.54-.06,89.76,44.57,95.45,55.11,5.69,10.54,9.04,96.4,0,110.22-9.04,13.81-81.51,55.79-95.45,55.11s-88.95-43.84-95.45-55.11c-6.5-11.27-5.85-98.06,0-110.22Z"/><circle class="cls-5" cx="183.5" cy="187.04" r="45.83"/><path class="cls-5" d="m145.04,258.47c16.78,9.21,32.49,16.57,38.01,16.84,5.5.27,20.73-6.55,37.15-15.5-2.03-8.05-4.13-14.57-5.97-16.73-5.19-6.1-56.48-6.1-62.58,0-2.04,2.04-4.35,7.96-6.61,15.39Z"/><path class="cls-5" d="m241.25,154.56c-5.69,0-11.08,1.27-15.94,3.5,5.72,8.23,9.09,18.21,9.09,28.99,0,14.51-6.1,27.57-15.84,36.84,6.36,4.68,14.19,7.47,22.69,7.47,15.2,0,28.3-8.85,34.52-21.67,1.06-8.16,1.54-18.69,1.59-29.69-5.32-14.82-19.46-25.44-36.11-25.44Z"/><path class="cls-5" d="m219.1,240.95c1.88,2.21,3.99,8.35,6.07,16.17,11.73-6.55,23.71-13.97,32.93-20.52-14.12-1.61-36.94-.65-41.24,2.89,1,.45,1.78.93,2.23,1.46Z"/><path class="cls-5" d="m125.98,154.56c5.69,0,11.08,1.27,15.94,3.5-5.72,8.23-9.09,18.21-9.09,28.99,0,14.51,6.1,27.57,15.84,36.84-6.36,4.68-14.19,7.47-22.69,7.47-15.2,0-28.95-9.51-35.17-22.32-1.06-8.16-1.54-18.69-1.59-29.69,5.32-14.82,20.11-24.78,36.76-24.78Z"/><path class="cls-5" d="m148.13,240.95c-1.88,2.21-3.99,8.35-6.07,16.17-11.73-6.55-23.71-13.97-32.93-20.52,14.12-1.61,36.94-.65,41.24,2.89-1,.45-1.78.93-2.23,1.46Z"/></svg>