<svg width="273" height="430" viewBox="0 0 273 430" fill="none" xmlns="http://www.w3.org/2000/svg">
<g clip-path="url(#clip0_10_2)">
<path d="M168.119 360L155.141 307.788C153.922 302.987 153.153 298.08 152.841 293.128C152.135 281.913 153.238 263.831 154.58 245.931L162.723 246.483L162.725 246.482L162.892 246.493C162.892 246.493 155.313 121.424 155.141 90.162C160.016 98.7367 204 109.182 213.976 137.654C241 191 246.72 260.398 224.5 317.5C219.732 329.753 182.644 353.999 170.517 359.11C169.724 359.444 168.924 359.739 168.119 360ZM104.87 262.5C102.152 257.991 81.1473 245.729 76.1938 243.054C69.3396 239.35 61.2256 238.839 53.9397 236.076C38.84 230.35 28.7849 215.203 25.5064 199.408C22.2268 183.614 24.7724 167.19 28.6421 151.531C33.695 131.089 41.2769 110.724 55.0567 94.7895C67.5611 80.3281 85.9259 70 104.87 70C106.802 70 108.741 70.1075 110.679 70.3288L117.643 71.7048C128.677 73.0157 141.093 83.0471 152.276 96.0094C146.571 93.9241 141.946 93.4527 141.946 93.4527L137.433 90.162L97.7832 100.667C95.7304 100.923 98.6746 104.369 95.5886 109.182C92.2469 114.392 113.439 120.954 113.139 127.177L104.87 241.447V248V262.5L104 245.5C103.682 249.567 105.192 258.231 104.87 262.5Z" fill="#E8E4E1"/>
<path d="M65.4878 277C60.1094 277 55.5262 272.89 55.0419 267.431C54.5282 261.654 58.7944 256.556 64.5704 256.042C64.8854 256.013 65.1994 256 65.5103 256C70.8897 256 75.473 260.11 75.9582 265.571C76.471 271.347 72.2058 276.446 66.4298 276.958C66.1128 276.987 65.7988 277 65.4878 277Z" fill="#E8E4E1"/>
<path d="M137 427C189.467 427 232 424.761 232 422C232 419.239 189.467 417 137 417C84.5329 417 42 419.239 42 422C42 424.761 84.5329 427 137 427Z" fill="#E3DFDB"/>
<path d="M112.975 417.04L111.278 418.628L107.686 422.003H72.0133C71.9231 420.866 72.5007 419.729 73.4937 418.646C75.7503 416.174 80.2094 413.918 84.3074 412.222C90.1565 409.786 95.0669 405.509 98.2082 400.005L98.2984 399.843L125.197 413.792L125.703 418.755L126.028 422.021H112.957V417.058L112.975 417.04Z" fill="#3A2730"/>
<path d="M162.928 418.322L164.625 419.91L168.217 423.284H203.89C203.98 422.147 203.403 421.01 202.41 419.928C200.153 417.455 195.694 415.2 191.596 413.503C185.747 411.067 180.836 406.79 177.695 401.286L177.605 401.124L150.706 415.073L150.201 420.036L149.876 423.302H162.946V418.34L162.928 418.322Z" fill="#3A2730"/>
<path d="M179.103 401.755L149.858 423.266L137.636 225.447L137.311 220.124L131.588 220.575C131.588 220.575 131.534 222.307 131.444 225.429C130.577 256.035 125.901 420.974 126.353 421.895C126.966 423.122 95.3557 401.034 95.3557 401.034L94.5614 213.826V210.902L94.5072 201.554L130.667 184.14L175.818 205.525V213.194L175.854 217.832L179.085 401.737L179.103 401.755Z" fill="#8183BF"/>
<path d="M175.854 213.212C157.404 213.158 115.376 211.66 94.5614 210.92L94.5253 201.572L130.685 184.158L175.836 205.543V213.212H175.854Z" fill="#5659A9"/>
<path d="M121.262 220.593H131.588C131.588 220.593 131.534 222.325 131.444 225.447C123.97 225.447 117.326 225.447 116.929 225.483C117.471 225.357 128.068 222.506 128.068 222.506L121.262 220.593Z" fill="#5659A9"/>
<path d="M153.215 225.483C153.215 225.483 145.778 225.483 137.654 225.447L137.329 220.124L147.727 220.051L142.149 222.578L153.234 225.483H153.215Z" fill="#5659A9"/>
<path d="M220.625 26.0402L218.838 35.1895C218.838 35.1895 230.699 36.5429 230.609 36.4346C230.518 36.3444 231.15 26.2928 231.15 26.2928L220.625 26.0222V26.0402Z" fill="#F16E6A"/>
<path d="M222.322 7.03789C222.972 6.71306 223.297 7.14616 223.423 8.17478C223.55 9.22144 223.189 17.4684 223.189 17.4684H224.164C224.164 17.4684 225.012 7.38076 225.843 6.60479C226.691 5.82881 226.98 6.94766 227.124 7.868C227.251 8.80638 226.926 17.7391 226.926 17.7391H227.612C227.612 17.7391 228.857 8.01237 229.2 7.84995C229.561 7.68754 230.554 7.4349 230.681 8.77029C230.789 10.1057 230.41 17.7932 230.41 17.7932H231.024C231.024 17.7932 232.143 10.6832 232.45 10.3042C232.757 9.92523 233.623 10.0155 233.714 11.6215C233.822 13.2457 233.623 24.38 232.576 27.2854C231.042 29.7757 226.817 30.5517 222.16 29.5411C217.502 28.5305 221.077 7.66949 222.304 7.03789H222.322Z" fill="#F16E6A"/>
<path d="M222.34 17.7211C222.34 17.7211 232.143 18.1542 232.324 17.9737C231.89 17.5947 224.579 16.4398 222.34 17.7211Z" fill="#EF5760"/>
<path d="M222.178 29.5411C219.777 29.2885 217.105 28.5666 216.148 26.4733C215.191 24.38 215.913 19.652 215.913 19.652C215.913 19.652 216.04 16.53 216.22 15.736C216.365 15.1044 217.141 15.0683 217.989 15.9886C218.748 16.8188 219.055 17.5767 219.037 19.291C219.037 20.9693 219.253 21.6551 219.199 22.7559C220.661 22.7378 223.369 22.6295 225.084 24.0371C226.799 25.4447 226.98 27.159 226.294 28.1516C225.463 29.3606 224.561 29.7757 222.16 29.5231L222.178 29.5411Z" fill="#F48B7F"/>
<path d="M226.763 23.0807C227.233 23.0266 230.988 21.4205 230.988 21.1859C230.988 20.9513 226.709 22.2325 226.709 22.2325C226.709 22.2325 223.062 20.7708 222.972 20.9513C222.882 21.1317 226.294 23.1529 226.781 23.0987L226.763 23.0807Z" fill="#EF5760"/>
<path d="M233.714 33.2947C233.714 33.2947 233.623 34.8105 233.515 36.6151C233.353 39.2859 233.154 42.5702 233.118 42.4439C233.064 42.2093 215.462 41.2529 215.462 41.2529L215.661 36.6151L215.823 32.627L233.714 33.2766V33.2947Z" fill="#FFF1D2"/>
<path d="M233.515 36.6151C233.353 39.2859 233.154 42.5702 233.118 42.4439C233.064 42.2093 215.462 41.2529 215.462 41.2529L215.661 36.6151H233.515Z" fill="#F2DAAC"/>
<path d="M165.654 108.997C166.34 109.033 207.519 111.361 225.698 105.749C226.691 105.442 227.467 104.648 227.774 103.656C230.464 94.9394 234.129 61.6447 234.995 40.3686C225.012 39.4844 213.007 38.6362 213.007 38.6362L203.818 80.4846C203.818 80.4846 159.245 80.8456 151.212 79.7628C145.399 78.9868 140.687 107.572 165.654 108.997Z" fill="#8183BF"/>
<path d="M205.551 84.3465C204.594 85.8262 211.508 96.8883 213.368 94.6146C215.209 92.3588 210.696 88.0459 210.696 88.0459C210.696 88.0459 216.654 91.7453 216.654 88.876C216.654 86.0067 207.808 80.8636 205.551 84.3465Z" fill="#5659A9"/>
<path d="M230.735 35.388C230.193 35.1353 229.543 35.3158 229.164 35.7669C228.442 36.6512 229.2 38.167 230.356 38.0407C230.97 37.9685 231.439 37.4452 231.529 36.8497C231.601 36.2542 231.276 35.6587 230.735 35.388Z" fill="#8183BF"/>
<path d="M174.03 123.055L178.814 207.528C178.814 207.528 165.166 209.404 152.222 206.156C139.279 202.89 133.159 194.156 133.159 194.156C133.159 194.156 132.274 195.347 130.685 197.079C128.194 199.768 125.161 202.024 118.066 203.864C108.354 206.373 89.8676 203.413 89.8676 203.413L94.7238 132.944C94.3447 133.666 92.5755 117.461 91.2576 102.483C90.4272 92.9363 91.5826 90.067 95.0488 87.2158C97.4498 85.2307 107.235 82.4877 113.03 80.9719C115.593 80.3042 117.362 79.8891 117.362 79.8891C117.362 79.8891 135.505 76.2258 143.142 77.1461C146.048 77.489 151.157 78.4455 156.573 79.6365C165.437 81.5854 175.132 84.166 177.28 85.8082C180.746 88.4609 174.012 123.091 174.012 123.091L174.03 123.055Z" fill="#8183BF"/>
<path d="M133.159 194.156C133.159 194.156 132.274 195.347 130.685 197.079L130.83 140.668L132.816 143.122L133.177 194.156H133.159Z" fill="#5659A9"/>
<path d="M141.824 170.624H167.207C167.207 170.624 161.61 177.752 153.956 176.326C146.319 174.901 141.824 170.624 141.824 170.624Z" fill="#5659A9"/>
<path d="M126.551 170.624H101.169C101.169 170.624 106.765 177.752 114.42 176.326C122.056 174.901 126.551 170.624 126.551 170.624Z" fill="#5659A9"/>
<path d="M107.09 205.687C105.881 208.141 102.992 206.788 102.992 206.788C102.992 206.788 102.92 207.311 102.469 207.852C102.234 208.141 101.891 208.43 101.385 208.647C99.9773 209.242 98.4247 208.213 98.4247 208.213C98.4247 208.213 98.2622 209.35 96.8722 209.946C95.464 210.541 94.0559 209.441 94.0559 209.441C94.0559 209.441 93.081 210.541 91.9617 210.632C90.8425 210.722 89.2899 209.278 87.5929 205.94C86.1668 202.547 86.1306 199.263 86.1306 199.263L79.9385 192.351L91.3118 184.826L95.5723 191.557C100.212 191.16 105.556 193.939 105.592 196.592C105.592 197.566 105.52 198.505 105.411 199.299C105.213 200.634 104.924 201.554 104.924 201.554C104.924 201.554 107.198 203.72 107.108 205.669L107.09 205.687Z" fill="#F48B7F"/>
<path d="M105.393 199.317C105.195 200.652 104.906 201.573 104.906 201.573C104.906 201.573 100.104 196.718 100.104 195.978C100.104 195.509 103.209 197.711 105.393 199.317Z" fill="#EF5760"/>
<path d="M102.992 206.788C102.992 206.788 102.92 207.311 102.469 207.852C101.313 206.932 99.4537 204.496 99.9231 204.658C100.519 204.875 102.992 206.788 102.992 206.788Z" fill="#EF5760"/>
<path d="M75.7683 190.384C76.4182 191.214 81.5272 197.133 81.5272 197.133L95.5363 186.107L90.9328 178.69L75.7864 190.384H75.7683Z" fill="#FFF1D2"/>
<path d="M95.0489 87.1977C80.1191 91.1497 36.5934 133.846 37.6946 139.278C38.7778 144.71 67.3556 185.566 77.1223 195.329C86.1668 188.092 95.2113 180.495 95.2113 180.495L74.8295 142.635C74.8295 142.635 100.736 119.319 103.173 115.042C106.585 109.051 103.949 84.8337 95.0489 87.1977Z" fill="#8183BF"/>
<path d="M163.072 110.278L154.66 112.877C154.66 112.877 155.111 114.104 157.711 119.139C155.255 125.256 145.633 135.795 132.798 143.122C122.868 138.701 110.322 124.643 110.322 124.643L113.066 116.396C113.066 116.396 109.852 115.638 105.736 114.718C103.624 98.8373 109.924 86.2052 113.012 80.9719C115.575 80.3042 117.344 79.8891 117.344 79.8891C117.344 79.8891 135.487 76.2258 143.124 77.1461C146.03 77.489 151.139 78.4455 156.555 79.6365C158.234 82.0907 160.04 85.339 161.213 89.2188C163.957 98.2418 163.054 110.314 163.054 110.314L163.072 110.278Z" fill="#5659A9"/>
<path d="M150.598 81.6937C149.063 79.5823 147.619 78.1387 147.619 78.1387L123.374 78.2469L121.208 78.8786C120.034 80.0696 118.915 81.2426 118.175 82.8126C117.182 84.9059 116.496 87.1797 116.062 89.4534C115.611 91.8175 115.413 94.2176 115.449 96.5996C115.539 97.8628 115.701 99.0899 115.936 100.227C117.561 108.275 122.363 123.759 131.732 139.134C140.903 129.966 152.728 95.2281 153.847 87.4864C153.125 85.4112 151.825 83.3359 150.598 81.6757V81.6937Z" fill="#FFF1D2"/>
<path d="M147.619 78.1387L123.374 78.2469L121.208 78.8786C120.413 79.6726 119.655 80.4666 119.023 81.3869C119.276 86.6744 121.406 94.6146 130.974 98.3681C141.987 95.4627 148.251 90.7347 150.381 82.6321C150.453 82.3253 150.544 82.0185 150.598 81.7118C149.063 79.6004 147.619 78.1567 147.619 78.1567V78.1387Z" fill="#F2DAAC"/>
<path d="M140.921 127.458C138.141 132.042 134.765 137.203 132.346 139.711C130.017 137.275 125.865 130.382 123.518 126.375C124.349 121.521 125.215 116.685 126.028 112.119C127.436 104.305 128.736 97.3575 129.566 92.7919C130.053 90.1933 130.378 88.3887 130.505 87.6128C132.039 86.4759 134.332 88.3707 134.332 88.3707C134.332 88.3707 134.675 90.1572 135.217 93.1528C136.137 98.1876 137.654 106.687 139.152 116.017C139.748 119.752 140.362 123.614 140.921 127.458Z" fill="#F3C537"/>
<path d="M140.921 127.801C138.141 132.385 134.765 137.546 132.346 140.054C130.017 137.618 125.865 130.724 123.518 126.718C124.349 121.864 125.215 117.028 126.028 112.462L131.588 131.049L139.17 116.36C139.766 120.095 140.38 123.957 140.939 127.801H140.921Z" fill="#F1B90E"/>
<path d="M158.18 107.969L150.489 110.675L151.121 112.137L153.793 118.255C153.793 118.255 140.596 135.922 132.346 140.054C132.346 140.054 146.103 109.34 148.251 97.1229C150.399 84.9059 145.651 75.8829 145.651 75.8829C145.651 75.8829 149.009 76.3341 151.464 79.5463C153.919 82.7584 156.808 88.5692 157.891 96.0402C158.956 103.529 158.198 107.95 158.198 107.95L158.18 107.969Z" fill="#8183BF"/>
<path d="M132.346 140.072C132.112 139.874 116.965 126.899 115.07 122.189C115.015 119.247 115.322 116.829 115.611 115.277C115.828 114.068 116.044 113.382 116.044 113.382L109.654 111.415C109.654 111.415 109.275 99.2704 112.253 90.7888C114.907 83.2637 117.38 79.8711 117.38 79.8711C117.38 79.8711 121.894 77.886 124.331 77.4349C124.331 77.4349 117.525 84.1479 117.994 94.0912C118.446 103.962 132.22 139.693 132.364 140.09L132.346 140.072Z" fill="#8183BF"/>
<path d="M135.217 93.5138C134.296 93.8927 133.267 94.1273 132.292 94.0371C131.299 93.9288 130.36 93.5679 129.566 93.1528C130.053 90.5542 130.378 88.7497 130.505 87.9737C132.039 86.8368 134.332 88.7316 134.332 88.7316C134.332 88.7316 134.675 90.5001 135.217 93.5138Z" fill="#F1B90E"/>
<path d="M127.454 86.2774C127.454 88.497 129.205 90.861 131.805 91.3122C134.404 91.7633 136.534 89.3993 137.311 87.1075C138.069 84.8157 135.56 82.2892 132.96 82.2171C130.36 82.1449 127.454 84.0577 127.454 86.2593V86.2774Z" fill="#F3C537"/>
<path d="M143.972 76.6048C142.059 80.0515 138.105 82.6862 132.798 82.5238C128.158 82.3975 126.244 80.0154 125.45 78.2289C126.154 76.8935 126.605 75.8829 126.605 75.8829V74.331L126.515 58.7754H143.413C143.413 58.7754 143.359 62.1861 143.413 66.2645C143.467 69.7654 143.611 73.7716 143.936 76.6048H143.972Z" fill="#F16E6A"/>
<path d="M143.449 66.2645C141.932 68.7729 139.658 71.3354 136.354 72.6708C132.075 74.4212 128.754 74.5656 126.605 74.331L126.533 58.7754H143.431C143.431 58.7754 143.377 62.1681 143.449 66.2645Z" fill="#EF5760"/>
<path d="M126.587 73.5911V75.8829C126.587 75.8829 125.667 77.3086 126.84 78.9868C128.014 80.6651 130.054 81.7298 132.238 81.8381C134.422 81.9463 137.636 82.0366 140.651 79.1853C143.665 76.3341 143.503 73.5911 143.611 72.2557C146.103 73.8798 148.251 76.5326 147.583 80.4124C146.915 84.2923 143.106 89.3271 135.921 91.9257C135.199 87.6488 135.307 83.8231 133.484 83.3178C131.642 82.8125 130.938 82.9569 130.017 85.357C129.097 87.7571 128.032 91.3122 128.032 91.3122C128.032 91.3122 123.952 88.2624 122.941 83.769C121.93 79.2936 123.103 75.5761 124.222 74.6558C125.197 73.8437 126.623 73.5911 126.623 73.5911H126.587Z" fill="#FFF1D2"/>
<path d="M119.691 55.7979C119.691 55.7979 115.358 52.1526 115.015 50.1856C114.672 48.2366 117.994 43.8154 117.994 43.8154C117.994 43.8154 111.459 45.0064 111.531 43.7252C111.621 42.4439 118.59 40.8378 118.59 40.8378C118.59 40.8378 113.228 39.737 113.499 38.1129C113.752 36.5068 127.689 30.8946 135 33.0962C142.311 35.2978 143.413 41.5055 143.413 41.5055C143.413 41.5055 146.915 40.1521 149.587 43.5267C152.132 46.7569 151.681 54.1737 147.854 58.1438C144.026 62.1139 131.173 64.6043 119.709 55.7798L119.691 55.7979Z" fill="#3A2530"/>
<path d="M115.521 51.2323C112.975 51.3586 112.687 53.5782 112.993 55.7076C113.3 57.8551 115.268 62.2222 117.868 62.132C120.467 62.0237 121.027 60.7605 121.171 60.1469C121.316 59.5334 118.68 51.0879 115.521 51.2323Z" fill="#F16E6A"/>
<path d="M115.286 58.1619C115.286 58.1619 114.275 56.646 114.275 54.4986C114.275 52.3511 115.629 52.1887 116.478 53.1451C117.326 54.1016 118.445 56.9709 118.445 56.9709C118.445 56.9709 116.586 57.1333 117.091 58.3784C117.597 59.6236 119.402 59.4973 119.402 59.4973C119.402 59.4973 118.843 61.0131 118.048 61.0131C117.254 61.0131 116.189 59.7138 116.189 59.7138C116.189 59.7138 117.146 60.5078 117.94 60.0567C116.586 59.2627 115.792 58.3062 116.135 57.0791C116.478 55.834 117.543 56.3392 117.543 56.3392C117.543 56.3392 116.442 53.867 115.521 54.7151C114.961 55.2204 115.304 58.1438 115.304 58.1438L115.286 58.1619Z" fill="#EF5760"/>
<path d="M142.727 55.7979C142.582 56.8084 142.438 57.7649 142.257 58.6491C141.337 63.2147 139.874 66.1021 137.69 67.8164C135.072 69.8737 124.728 72.8512 120.901 69.9639C118.012 67.7803 118.698 55.7618 119.186 50.0051C119.348 48.1464 119.493 46.9373 119.493 46.9373L125.919 46.4681C125.919 46.4681 122.182 47.7674 123.97 48.3269C127.129 49.3194 140.669 47.4968 140.669 47.4968C140.669 47.4968 140.199 49.9149 140.398 52.2428C140.578 54.5707 141.427 54.7512 142.727 55.7798V55.7979Z" fill="#F48B7F"/>
<path d="M146.355 51.2323C148.901 51.3586 149.19 53.5782 148.883 55.7076C148.576 57.8551 146.608 62.2222 144.008 62.132C141.409 62.0237 140.849 60.7605 140.705 60.1469C140.56 59.5334 143.196 51.0879 146.355 51.2323Z" fill="#F48B7F"/>
<path d="M146.608 58.1619C146.608 58.1619 147.619 56.646 147.619 54.4986C147.619 52.3511 146.265 52.1887 145.417 53.1451C144.568 54.1016 143.449 56.9709 143.449 56.9709C143.449 56.9709 145.308 57.1333 144.803 58.3784C144.297 59.6236 142.492 59.4973 142.492 59.4973C142.492 59.4973 143.052 61.0131 143.846 61.0131C144.64 61.0131 145.705 59.7138 145.705 59.7138C145.705 59.7138 144.749 60.5078 143.954 60.0567C145.308 59.2627 146.103 58.3062 145.76 57.0791C145.417 55.834 144.351 56.3392 144.351 56.3392C144.351 56.3392 145.453 53.867 146.373 54.7151C146.933 55.2204 146.59 58.1438 146.59 58.1438L146.608 58.1619Z" fill="#EF5760"/>
<path d="M131.155 66.3547C130.054 65.4885 127.941 66.084 127.58 67.5818C127.436 68.2495 132.834 67.6901 131.155 66.3547Z" fill="#F16E6A"/>
<path d="M125.378 61.8252C125.378 61.8252 128.284 61.753 130.27 61.374C132.256 60.9951 134.621 59.5334 134.621 59.5334C134.621 59.5334 134.314 64.3697 130.649 64.6584C126.75 64.9652 125.378 61.8252 125.378 61.8252Z" fill="#3A2530"/>
<path d="M125.378 61.8252C125.378 61.8252 127.039 62.6192 130.162 61.8613C133.267 61.1034 134.639 59.5334 134.639 59.5334C134.639 59.5334 129.855 61.374 125.396 61.8252H125.378Z" fill="#EF5760"/>
<path d="M127.454 50.6007C127.454 50.6007 129.602 54.0474 128.682 56.1768C127.761 58.3243 124.818 58.5408 124.818 58.5408C124.818 58.5408 126.642 57.043 127.147 55.7076C127.833 53.867 127.454 50.5826 127.454 50.5826V50.6007Z" fill="#EF5760"/>
<path d="M128.718 58.8296C129.061 58.2701 125.612 58.4145 126.064 58.8296C126.515 59.2446 128.158 59.7499 128.718 58.8296Z" fill="#EF5760"/>
<path d="M130.794 50.7811C130.794 50.7811 136.751 50.9435 136.751 50.8172C136.751 50.7089 135.939 49.2472 133.718 49.1931C131.48 49.1389 130.794 50.7811 130.794 50.7811Z" fill="#3A2530"/>
<path d="M130.992 54.4986C130.992 54.3903 131.678 52.6218 133.429 52.315C135.181 52.0082 136.823 54.0294 136.823 54.0294L130.974 54.4805L130.992 54.4986Z" fill="#3A2530"/>
<path d="M126.353 50.7631C126.353 50.7631 120.413 50.2037 120.431 50.0954C120.449 49.9871 121.424 48.6337 123.645 48.8502C125.865 49.0668 126.353 50.7811 126.353 50.7811V50.7631Z" fill="#3A2530"/>
<path d="M126.335 54.4986C126.335 54.3903 125.649 52.6218 123.897 52.315C122.146 52.0082 120.504 54.0294 120.504 54.0294L126.353 54.4805L126.335 54.4986Z" fill="#3A2530"/>
<path d="M8.53984 31.4953L32.8152 67.4958L27.1931 71.3966L1.94847 36.0688L8.53984 31.4953ZM39.962 83.7894C38.7665 84.6189 37.4435 84.9027 35.9929 84.6407C34.5424 84.3787 33.4022 83.6501 32.5723 82.4548C31.7425 81.2596 31.4586 79.9368 31.7205 78.4867C31.9824 77.0365 32.7111 75.8967 33.9066 75.0672C35.1021 74.2377 36.4251 73.9539 37.8756 74.2159C39.3262 74.4779 40.4664 75.2065 41.2962 76.4018C41.8457 77.1932 42.1484 78.0602 42.2043 79.0027C42.2763 79.934 42.1213 80.8313 41.7393 81.6947C41.3622 82.5307 40.7698 83.2289 39.962 83.7894Z" fill="#B8BAB9"/>
<path d="M47.4404 31.8658L59.1958 61.832L54.4983 63.7473L41.9331 34.1113L47.4404 31.8658ZM61.7376 74.7748C60.7387 75.1821 59.7356 75.1739 58.7283 74.7503C57.721 74.3267 57.0136 73.6155 56.606 72.6167C56.1985 71.6179 56.2065 70.615 56.63 69.608C57.0535 68.601 57.7647 67.8938 58.7636 67.4865C59.7625 67.0793 60.7656 67.0875 61.7729 67.5111C62.7802 67.9347 63.4876 68.6459 63.8952 69.6447C64.165 70.3061 64.2441 70.9822 64.1325 71.6732C64.0343 72.3586 63.7774 72.9829 63.3616 73.546C62.9538 74.09 62.4125 74.4997 61.7376 74.7748Z" fill="#B8BAB9"/>
</g>
<defs>
<clipPath id="clip0_10_2">
<rect width="272.654" height="429.636" fill="white"/>
</clipPath>
</defs>
</svg>
